%TF.GenerationSoftware,KiCad,Pcbnew,10.0.3*%
%TF.CreationDate,2026-07-08T18:21:00+05:30*%
%TF.ProjectId,cerement pcb,63657265-6d65-46e7-9420-7063622e6b69,rev?*%
%TF.SameCoordinates,Original*%
%TF.FileFunction,Legend,Top*%
%TF.FilePolarity,Positive*%
%FSLAX46Y46*%
G04 Gerber Fmt 4.6, Leading zero omitted, Abs format (unit mm)*
G04 Created by KiCad (PCBNEW 10.0.3) date 2026-07-08 18:21:00*
%MOMM*%
%LPD*%
G01*
G04 APERTURE LIST*
%ADD10C,0.100000*%
%ADD11C,0.300000*%
%ADD12C,0.150000*%
%ADD13C,0.120000*%
G04 APERTURE END LIST*
D10*
X140954836Y-91584800D02*
X140859598Y-91632419D01*
X140859598Y-91632419D02*
X140669122Y-91632419D01*
X140669122Y-91632419D02*
X140573884Y-91584800D01*
X140573884Y-91584800D02*
X140526265Y-91489561D01*
X140526265Y-91489561D02*
X140526265Y-91108609D01*
X140526265Y-91108609D02*
X140573884Y-91013371D01*
X140573884Y-91013371D02*
X140669122Y-90965752D01*
X140669122Y-90965752D02*
X140859598Y-90965752D01*
X140859598Y-90965752D02*
X140954836Y-91013371D01*
X140954836Y-91013371D02*
X141002455Y-91108609D01*
X141002455Y-91108609D02*
X141002455Y-91203847D01*
X141002455Y-91203847D02*
X140526265Y-91299085D01*
X141383408Y-91584800D02*
X141478646Y-91632419D01*
X141478646Y-91632419D02*
X141669122Y-91632419D01*
X141669122Y-91632419D02*
X141764360Y-91584800D01*
X141764360Y-91584800D02*
X141811979Y-91489561D01*
X141811979Y-91489561D02*
X141811979Y-91441942D01*
X141811979Y-91441942D02*
X141764360Y-91346704D01*
X141764360Y-91346704D02*
X141669122Y-91299085D01*
X141669122Y-91299085D02*
X141526265Y-91299085D01*
X141526265Y-91299085D02*
X141431027Y-91251466D01*
X141431027Y-91251466D02*
X141383408Y-91156228D01*
X141383408Y-91156228D02*
X141383408Y-91108609D01*
X141383408Y-91108609D02*
X141431027Y-91013371D01*
X141431027Y-91013371D02*
X141526265Y-90965752D01*
X141526265Y-90965752D02*
X141669122Y-90965752D01*
X141669122Y-90965752D02*
X141764360Y-91013371D01*
X142240551Y-90965752D02*
X142240551Y-91965752D01*
X142240551Y-91013371D02*
X142335789Y-90965752D01*
X142335789Y-90965752D02*
X142526265Y-90965752D01*
X142526265Y-90965752D02*
X142621503Y-91013371D01*
X142621503Y-91013371D02*
X142669122Y-91060990D01*
X142669122Y-91060990D02*
X142716741Y-91156228D01*
X142716741Y-91156228D02*
X142716741Y-91441942D01*
X142716741Y-91441942D02*
X142669122Y-91537180D01*
X142669122Y-91537180D02*
X142621503Y-91584800D01*
X142621503Y-91584800D02*
X142526265Y-91632419D01*
X142526265Y-91632419D02*
X142335789Y-91632419D01*
X142335789Y-91632419D02*
X142240551Y-91584800D01*
X143050075Y-90632419D02*
X143669122Y-90632419D01*
X143669122Y-90632419D02*
X143335789Y-91013371D01*
X143335789Y-91013371D02*
X143478646Y-91013371D01*
X143478646Y-91013371D02*
X143573884Y-91060990D01*
X143573884Y-91060990D02*
X143621503Y-91108609D01*
X143621503Y-91108609D02*
X143669122Y-91203847D01*
X143669122Y-91203847D02*
X143669122Y-91441942D01*
X143669122Y-91441942D02*
X143621503Y-91537180D01*
X143621503Y-91537180D02*
X143573884Y-91584800D01*
X143573884Y-91584800D02*
X143478646Y-91632419D01*
X143478646Y-91632419D02*
X143192932Y-91632419D01*
X143192932Y-91632419D02*
X143097694Y-91584800D01*
X143097694Y-91584800D02*
X143050075Y-91537180D01*
X144050075Y-90727657D02*
X144097694Y-90680038D01*
X144097694Y-90680038D02*
X144192932Y-90632419D01*
X144192932Y-90632419D02*
X144431027Y-90632419D01*
X144431027Y-90632419D02*
X144526265Y-90680038D01*
X144526265Y-90680038D02*
X144573884Y-90727657D01*
X144573884Y-90727657D02*
X144621503Y-90822895D01*
X144621503Y-90822895D02*
X144621503Y-90918133D01*
X144621503Y-90918133D02*
X144573884Y-91060990D01*
X144573884Y-91060990D02*
X144002456Y-91632419D01*
X144002456Y-91632419D02*
X144621503Y-91632419D01*
X113972455Y-127622419D02*
X113972455Y-127098609D01*
X113972455Y-127098609D02*
X113924836Y-127003371D01*
X113924836Y-127003371D02*
X113829598Y-126955752D01*
X113829598Y-126955752D02*
X113639122Y-126955752D01*
X113639122Y-126955752D02*
X113543884Y-127003371D01*
X113972455Y-127574800D02*
X113877217Y-127622419D01*
X113877217Y-127622419D02*
X113639122Y-127622419D01*
X113639122Y-127622419D02*
X113543884Y-127574800D01*
X113543884Y-127574800D02*
X113496265Y-127479561D01*
X113496265Y-127479561D02*
X113496265Y-127384323D01*
X113496265Y-127384323D02*
X113543884Y-127289085D01*
X113543884Y-127289085D02*
X113639122Y-127241466D01*
X113639122Y-127241466D02*
X113877217Y-127241466D01*
X113877217Y-127241466D02*
X113972455Y-127193847D01*
X114448646Y-127622419D02*
X114448646Y-126955752D01*
X114448646Y-127050990D02*
X114496265Y-127003371D01*
X114496265Y-127003371D02*
X114591503Y-126955752D01*
X114591503Y-126955752D02*
X114734360Y-126955752D01*
X114734360Y-126955752D02*
X114829598Y-127003371D01*
X114829598Y-127003371D02*
X114877217Y-127098609D01*
X114877217Y-127098609D02*
X114877217Y-127622419D01*
X114877217Y-127098609D02*
X114924836Y-127003371D01*
X114924836Y-127003371D02*
X115020074Y-126955752D01*
X115020074Y-126955752D02*
X115162931Y-126955752D01*
X115162931Y-126955752D02*
X115258170Y-127003371D01*
X115258170Y-127003371D02*
X115305789Y-127098609D01*
X115305789Y-127098609D02*
X115305789Y-127622419D01*
X115781979Y-126955752D02*
X115781979Y-127955752D01*
X115781979Y-127003371D02*
X115877217Y-126955752D01*
X115877217Y-126955752D02*
X116067693Y-126955752D01*
X116067693Y-126955752D02*
X116162931Y-127003371D01*
X116162931Y-127003371D02*
X116210550Y-127050990D01*
X116210550Y-127050990D02*
X116258169Y-127146228D01*
X116258169Y-127146228D02*
X116258169Y-127431942D01*
X116258169Y-127431942D02*
X116210550Y-127527180D01*
X116210550Y-127527180D02*
X116162931Y-127574800D01*
X116162931Y-127574800D02*
X116067693Y-127622419D01*
X116067693Y-127622419D02*
X115877217Y-127622419D01*
X115877217Y-127622419D02*
X115781979Y-127574800D01*
X116829598Y-127622419D02*
X116734360Y-127574800D01*
X116734360Y-127574800D02*
X116686741Y-127479561D01*
X116686741Y-127479561D02*
X116686741Y-126622419D01*
X117210551Y-127622419D02*
X117210551Y-126955752D01*
X117210551Y-126622419D02*
X117162932Y-126670038D01*
X117162932Y-126670038D02*
X117210551Y-126717657D01*
X117210551Y-126717657D02*
X117258170Y-126670038D01*
X117258170Y-126670038D02*
X117210551Y-126622419D01*
X117210551Y-126622419D02*
X117210551Y-126717657D01*
X117543884Y-126955752D02*
X117924836Y-126955752D01*
X117686741Y-127622419D02*
X117686741Y-126765276D01*
X117686741Y-126765276D02*
X117734360Y-126670038D01*
X117734360Y-126670038D02*
X117829598Y-126622419D01*
X117829598Y-126622419D02*
X117924836Y-126622419D01*
X118258170Y-127622419D02*
X118258170Y-126955752D01*
X118258170Y-126622419D02*
X118210551Y-126670038D01*
X118210551Y-126670038D02*
X118258170Y-126717657D01*
X118258170Y-126717657D02*
X118305789Y-126670038D01*
X118305789Y-126670038D02*
X118258170Y-126622419D01*
X118258170Y-126622419D02*
X118258170Y-126717657D01*
X119115312Y-127574800D02*
X119020074Y-127622419D01*
X119020074Y-127622419D02*
X118829598Y-127622419D01*
X118829598Y-127622419D02*
X118734360Y-127574800D01*
X118734360Y-127574800D02*
X118686741Y-127479561D01*
X118686741Y-127479561D02*
X118686741Y-127098609D01*
X118686741Y-127098609D02*
X118734360Y-127003371D01*
X118734360Y-127003371D02*
X118829598Y-126955752D01*
X118829598Y-126955752D02*
X119020074Y-126955752D01*
X119020074Y-126955752D02*
X119115312Y-127003371D01*
X119115312Y-127003371D02*
X119162931Y-127098609D01*
X119162931Y-127098609D02*
X119162931Y-127193847D01*
X119162931Y-127193847D02*
X118686741Y-127289085D01*
X119591503Y-127622419D02*
X119591503Y-126955752D01*
X119591503Y-127146228D02*
X119639122Y-127050990D01*
X119639122Y-127050990D02*
X119686741Y-127003371D01*
X119686741Y-127003371D02*
X119781979Y-126955752D01*
X119781979Y-126955752D02*
X119877217Y-126955752D01*
X127222455Y-136975752D02*
X127222455Y-137785276D01*
X127222455Y-137785276D02*
X127174836Y-137880514D01*
X127174836Y-137880514D02*
X127127217Y-137928133D01*
X127127217Y-137928133D02*
X127031979Y-137975752D01*
X127031979Y-137975752D02*
X126889122Y-137975752D01*
X126889122Y-137975752D02*
X126793884Y-137928133D01*
X127222455Y-137594800D02*
X127127217Y-137642419D01*
X127127217Y-137642419D02*
X126936741Y-137642419D01*
X126936741Y-137642419D02*
X126841503Y-137594800D01*
X126841503Y-137594800D02*
X126793884Y-137547180D01*
X126793884Y-137547180D02*
X126746265Y-137451942D01*
X126746265Y-137451942D02*
X126746265Y-137166228D01*
X126746265Y-137166228D02*
X126793884Y-137070990D01*
X126793884Y-137070990D02*
X126841503Y-137023371D01*
X126841503Y-137023371D02*
X126936741Y-136975752D01*
X126936741Y-136975752D02*
X127127217Y-136975752D01*
X127127217Y-136975752D02*
X127222455Y-137023371D01*
X127603408Y-136975752D02*
X127841503Y-137642419D01*
X128079598Y-136975752D02*
X127841503Y-137642419D01*
X127841503Y-137642419D02*
X127746265Y-137880514D01*
X127746265Y-137880514D02*
X127698646Y-137928133D01*
X127698646Y-137928133D02*
X127603408Y-137975752D01*
X128460551Y-137642419D02*
X128460551Y-136975752D01*
X128460551Y-137166228D02*
X128508170Y-137070990D01*
X128508170Y-137070990D02*
X128555789Y-137023371D01*
X128555789Y-137023371D02*
X128651027Y-136975752D01*
X128651027Y-136975752D02*
X128746265Y-136975752D01*
X129222456Y-137642419D02*
X129127218Y-137594800D01*
X129127218Y-137594800D02*
X129079599Y-137547180D01*
X129079599Y-137547180D02*
X129031980Y-137451942D01*
X129031980Y-137451942D02*
X129031980Y-137166228D01*
X129031980Y-137166228D02*
X129079599Y-137070990D01*
X129079599Y-137070990D02*
X129127218Y-137023371D01*
X129127218Y-137023371D02*
X129222456Y-136975752D01*
X129222456Y-136975752D02*
X129365313Y-136975752D01*
X129365313Y-136975752D02*
X129460551Y-137023371D01*
X129460551Y-137023371D02*
X129508170Y-137070990D01*
X129508170Y-137070990D02*
X129555789Y-137166228D01*
X129555789Y-137166228D02*
X129555789Y-137451942D01*
X129555789Y-137451942D02*
X129508170Y-137547180D01*
X129508170Y-137547180D02*
X129460551Y-137594800D01*
X129460551Y-137594800D02*
X129365313Y-137642419D01*
X129365313Y-137642419D02*
X129222456Y-137642419D01*
X173893884Y-142482419D02*
X173893884Y-141815752D01*
X173893884Y-141482419D02*
X173846265Y-141530038D01*
X173846265Y-141530038D02*
X173893884Y-141577657D01*
X173893884Y-141577657D02*
X173941503Y-141530038D01*
X173941503Y-141530038D02*
X173893884Y-141482419D01*
X173893884Y-141482419D02*
X173893884Y-141577657D01*
X174370074Y-142482419D02*
X174370074Y-141815752D01*
X174370074Y-142006228D02*
X174417693Y-141910990D01*
X174417693Y-141910990D02*
X174465312Y-141863371D01*
X174465312Y-141863371D02*
X174560550Y-141815752D01*
X174560550Y-141815752D02*
X174655788Y-141815752D01*
X175703408Y-142434800D02*
X175798646Y-142482419D01*
X175798646Y-142482419D02*
X175989122Y-142482419D01*
X175989122Y-142482419D02*
X176084360Y-142434800D01*
X176084360Y-142434800D02*
X176131979Y-142339561D01*
X176131979Y-142339561D02*
X176131979Y-142291942D01*
X176131979Y-142291942D02*
X176084360Y-142196704D01*
X176084360Y-142196704D02*
X175989122Y-142149085D01*
X175989122Y-142149085D02*
X175846265Y-142149085D01*
X175846265Y-142149085D02*
X175751027Y-142101466D01*
X175751027Y-142101466D02*
X175703408Y-142006228D01*
X175703408Y-142006228D02*
X175703408Y-141958609D01*
X175703408Y-141958609D02*
X175751027Y-141863371D01*
X175751027Y-141863371D02*
X175846265Y-141815752D01*
X175846265Y-141815752D02*
X175989122Y-141815752D01*
X175989122Y-141815752D02*
X176084360Y-141863371D01*
X176941503Y-142434800D02*
X176846265Y-142482419D01*
X176846265Y-142482419D02*
X176655789Y-142482419D01*
X176655789Y-142482419D02*
X176560551Y-142434800D01*
X176560551Y-142434800D02*
X176512932Y-142339561D01*
X176512932Y-142339561D02*
X176512932Y-141958609D01*
X176512932Y-141958609D02*
X176560551Y-141863371D01*
X176560551Y-141863371D02*
X176655789Y-141815752D01*
X176655789Y-141815752D02*
X176846265Y-141815752D01*
X176846265Y-141815752D02*
X176941503Y-141863371D01*
X176941503Y-141863371D02*
X176989122Y-141958609D01*
X176989122Y-141958609D02*
X176989122Y-142053847D01*
X176989122Y-142053847D02*
X176512932Y-142149085D01*
X177417694Y-141815752D02*
X177417694Y-142482419D01*
X177417694Y-141910990D02*
X177465313Y-141863371D01*
X177465313Y-141863371D02*
X177560551Y-141815752D01*
X177560551Y-141815752D02*
X177703408Y-141815752D01*
X177703408Y-141815752D02*
X177798646Y-141863371D01*
X177798646Y-141863371D02*
X177846265Y-141958609D01*
X177846265Y-141958609D02*
X177846265Y-142482419D01*
X178274837Y-142434800D02*
X178370075Y-142482419D01*
X178370075Y-142482419D02*
X178560551Y-142482419D01*
X178560551Y-142482419D02*
X178655789Y-142434800D01*
X178655789Y-142434800D02*
X178703408Y-142339561D01*
X178703408Y-142339561D02*
X178703408Y-142291942D01*
X178703408Y-142291942D02*
X178655789Y-142196704D01*
X178655789Y-142196704D02*
X178560551Y-142149085D01*
X178560551Y-142149085D02*
X178417694Y-142149085D01*
X178417694Y-142149085D02*
X178322456Y-142101466D01*
X178322456Y-142101466D02*
X178274837Y-142006228D01*
X178274837Y-142006228D02*
X178274837Y-141958609D01*
X178274837Y-141958609D02*
X178322456Y-141863371D01*
X178322456Y-141863371D02*
X178417694Y-141815752D01*
X178417694Y-141815752D02*
X178560551Y-141815752D01*
X178560551Y-141815752D02*
X178655789Y-141863371D01*
X179274837Y-142482419D02*
X179179599Y-142434800D01*
X179179599Y-142434800D02*
X179131980Y-142387180D01*
X179131980Y-142387180D02*
X179084361Y-142291942D01*
X179084361Y-142291942D02*
X179084361Y-142006228D01*
X179084361Y-142006228D02*
X179131980Y-141910990D01*
X179131980Y-141910990D02*
X179179599Y-141863371D01*
X179179599Y-141863371D02*
X179274837Y-141815752D01*
X179274837Y-141815752D02*
X179417694Y-141815752D01*
X179417694Y-141815752D02*
X179512932Y-141863371D01*
X179512932Y-141863371D02*
X179560551Y-141910990D01*
X179560551Y-141910990D02*
X179608170Y-142006228D01*
X179608170Y-142006228D02*
X179608170Y-142291942D01*
X179608170Y-142291942D02*
X179560551Y-142387180D01*
X179560551Y-142387180D02*
X179512932Y-142434800D01*
X179512932Y-142434800D02*
X179417694Y-142482419D01*
X179417694Y-142482419D02*
X179274837Y-142482419D01*
X180036742Y-142482419D02*
X180036742Y-141815752D01*
X180036742Y-142006228D02*
X180084361Y-141910990D01*
X180084361Y-141910990D02*
X180131980Y-141863371D01*
X180131980Y-141863371D02*
X180227218Y-141815752D01*
X180227218Y-141815752D02*
X180322456Y-141815752D01*
X110712419Y-93649925D02*
X110712419Y-94126115D01*
X110712419Y-94126115D02*
X111188609Y-94173734D01*
X111188609Y-94173734D02*
X111140990Y-94126115D01*
X111140990Y-94126115D02*
X111093371Y-94030877D01*
X111093371Y-94030877D02*
X111093371Y-93792782D01*
X111093371Y-93792782D02*
X111140990Y-93697544D01*
X111140990Y-93697544D02*
X111188609Y-93649925D01*
X111188609Y-93649925D02*
X111283847Y-93602306D01*
X111283847Y-93602306D02*
X111521942Y-93602306D01*
X111521942Y-93602306D02*
X111617180Y-93649925D01*
X111617180Y-93649925D02*
X111664800Y-93697544D01*
X111664800Y-93697544D02*
X111712419Y-93792782D01*
X111712419Y-93792782D02*
X111712419Y-94030877D01*
X111712419Y-94030877D02*
X111664800Y-94126115D01*
X111664800Y-94126115D02*
X111617180Y-94173734D01*
X111045752Y-93268972D02*
X111712419Y-93030877D01*
X111712419Y-93030877D02*
X111045752Y-92792782D01*
X111712419Y-91649924D02*
X110712419Y-91649924D01*
X111093371Y-91649924D02*
X111045752Y-91554686D01*
X111045752Y-91554686D02*
X111045752Y-91364210D01*
X111045752Y-91364210D02*
X111093371Y-91268972D01*
X111093371Y-91268972D02*
X111140990Y-91221353D01*
X111140990Y-91221353D02*
X111236228Y-91173734D01*
X111236228Y-91173734D02*
X111521942Y-91173734D01*
X111521942Y-91173734D02*
X111617180Y-91221353D01*
X111617180Y-91221353D02*
X111664800Y-91268972D01*
X111664800Y-91268972D02*
X111712419Y-91364210D01*
X111712419Y-91364210D02*
X111712419Y-91554686D01*
X111712419Y-91554686D02*
X111664800Y-91649924D01*
X111712419Y-90602305D02*
X111664800Y-90697543D01*
X111664800Y-90697543D02*
X111617180Y-90745162D01*
X111617180Y-90745162D02*
X111521942Y-90792781D01*
X111521942Y-90792781D02*
X111236228Y-90792781D01*
X111236228Y-90792781D02*
X111140990Y-90745162D01*
X111140990Y-90745162D02*
X111093371Y-90697543D01*
X111093371Y-90697543D02*
X111045752Y-90602305D01*
X111045752Y-90602305D02*
X111045752Y-90459448D01*
X111045752Y-90459448D02*
X111093371Y-90364210D01*
X111093371Y-90364210D02*
X111140990Y-90316591D01*
X111140990Y-90316591D02*
X111236228Y-90268972D01*
X111236228Y-90268972D02*
X111521942Y-90268972D01*
X111521942Y-90268972D02*
X111617180Y-90316591D01*
X111617180Y-90316591D02*
X111664800Y-90364210D01*
X111664800Y-90364210D02*
X111712419Y-90459448D01*
X111712419Y-90459448D02*
X111712419Y-90602305D01*
X111712419Y-89697543D02*
X111664800Y-89792781D01*
X111664800Y-89792781D02*
X111617180Y-89840400D01*
X111617180Y-89840400D02*
X111521942Y-89888019D01*
X111521942Y-89888019D02*
X111236228Y-89888019D01*
X111236228Y-89888019D02*
X111140990Y-89840400D01*
X111140990Y-89840400D02*
X111093371Y-89792781D01*
X111093371Y-89792781D02*
X111045752Y-89697543D01*
X111045752Y-89697543D02*
X111045752Y-89554686D01*
X111045752Y-89554686D02*
X111093371Y-89459448D01*
X111093371Y-89459448D02*
X111140990Y-89411829D01*
X111140990Y-89411829D02*
X111236228Y-89364210D01*
X111236228Y-89364210D02*
X111521942Y-89364210D01*
X111521942Y-89364210D02*
X111617180Y-89411829D01*
X111617180Y-89411829D02*
X111664800Y-89459448D01*
X111664800Y-89459448D02*
X111712419Y-89554686D01*
X111712419Y-89554686D02*
X111712419Y-89697543D01*
X111664800Y-88983257D02*
X111712419Y-88888019D01*
X111712419Y-88888019D02*
X111712419Y-88697543D01*
X111712419Y-88697543D02*
X111664800Y-88602305D01*
X111664800Y-88602305D02*
X111569561Y-88554686D01*
X111569561Y-88554686D02*
X111521942Y-88554686D01*
X111521942Y-88554686D02*
X111426704Y-88602305D01*
X111426704Y-88602305D02*
X111379085Y-88697543D01*
X111379085Y-88697543D02*
X111379085Y-88840400D01*
X111379085Y-88840400D02*
X111331466Y-88935638D01*
X111331466Y-88935638D02*
X111236228Y-88983257D01*
X111236228Y-88983257D02*
X111188609Y-88983257D01*
X111188609Y-88983257D02*
X111093371Y-88935638D01*
X111093371Y-88935638D02*
X111045752Y-88840400D01*
X111045752Y-88840400D02*
X111045752Y-88697543D01*
X111045752Y-88697543D02*
X111093371Y-88602305D01*
X111045752Y-88268971D02*
X111045752Y-87888019D01*
X110712419Y-88126114D02*
X111569561Y-88126114D01*
X111569561Y-88126114D02*
X111664800Y-88078495D01*
X111664800Y-88078495D02*
X111712419Y-87983257D01*
X111712419Y-87983257D02*
X111712419Y-87888019D01*
X111664800Y-87173733D02*
X111712419Y-87268971D01*
X111712419Y-87268971D02*
X111712419Y-87459447D01*
X111712419Y-87459447D02*
X111664800Y-87554685D01*
X111664800Y-87554685D02*
X111569561Y-87602304D01*
X111569561Y-87602304D02*
X111188609Y-87602304D01*
X111188609Y-87602304D02*
X111093371Y-87554685D01*
X111093371Y-87554685D02*
X111045752Y-87459447D01*
X111045752Y-87459447D02*
X111045752Y-87268971D01*
X111045752Y-87268971D02*
X111093371Y-87173733D01*
X111093371Y-87173733D02*
X111188609Y-87126114D01*
X111188609Y-87126114D02*
X111283847Y-87126114D01*
X111283847Y-87126114D02*
X111379085Y-87602304D01*
X111712419Y-86697542D02*
X111045752Y-86697542D01*
X111236228Y-86697542D02*
X111140990Y-86649923D01*
X111140990Y-86649923D02*
X111093371Y-86602304D01*
X111093371Y-86602304D02*
X111045752Y-86507066D01*
X111045752Y-86507066D02*
X111045752Y-86411828D01*
D11*
X110387368Y-44459400D02*
X110244510Y-44530828D01*
X110244510Y-44530828D02*
X109958796Y-44530828D01*
X109958796Y-44530828D02*
X109815939Y-44459400D01*
X109815939Y-44459400D02*
X109744510Y-44387971D01*
X109744510Y-44387971D02*
X109673082Y-44245114D01*
X109673082Y-44245114D02*
X109673082Y-43816542D01*
X109673082Y-43816542D02*
X109744510Y-43673685D01*
X109744510Y-43673685D02*
X109815939Y-43602257D01*
X109815939Y-43602257D02*
X109958796Y-43530828D01*
X109958796Y-43530828D02*
X110244510Y-43530828D01*
X110244510Y-43530828D02*
X110387368Y-43602257D01*
X111030224Y-44530828D02*
X111030224Y-43030828D01*
X111673082Y-44530828D02*
X111673082Y-43745114D01*
X111673082Y-43745114D02*
X111601653Y-43602257D01*
X111601653Y-43602257D02*
X111458796Y-43530828D01*
X111458796Y-43530828D02*
X111244510Y-43530828D01*
X111244510Y-43530828D02*
X111101653Y-43602257D01*
X111101653Y-43602257D02*
X111030224Y-43673685D01*
X113030225Y-44530828D02*
X113030225Y-43745114D01*
X113030225Y-43745114D02*
X112958796Y-43602257D01*
X112958796Y-43602257D02*
X112815939Y-43530828D01*
X112815939Y-43530828D02*
X112530225Y-43530828D01*
X112530225Y-43530828D02*
X112387367Y-43602257D01*
X113030225Y-44459400D02*
X112887367Y-44530828D01*
X112887367Y-44530828D02*
X112530225Y-44530828D01*
X112530225Y-44530828D02*
X112387367Y-44459400D01*
X112387367Y-44459400D02*
X112315939Y-44316542D01*
X112315939Y-44316542D02*
X112315939Y-44173685D01*
X112315939Y-44173685D02*
X112387367Y-44030828D01*
X112387367Y-44030828D02*
X112530225Y-43959400D01*
X112530225Y-43959400D02*
X112887367Y-43959400D01*
X112887367Y-43959400D02*
X113030225Y-43887971D01*
X113744510Y-44530828D02*
X113744510Y-43530828D01*
X113744510Y-43816542D02*
X113815939Y-43673685D01*
X113815939Y-43673685D02*
X113887368Y-43602257D01*
X113887368Y-43602257D02*
X114030225Y-43530828D01*
X114030225Y-43530828D02*
X114173082Y-43530828D01*
X115315939Y-43530828D02*
X115315939Y-44745114D01*
X115315939Y-44745114D02*
X115244510Y-44887971D01*
X115244510Y-44887971D02*
X115173081Y-44959400D01*
X115173081Y-44959400D02*
X115030224Y-45030828D01*
X115030224Y-45030828D02*
X114815939Y-45030828D01*
X114815939Y-45030828D02*
X114673081Y-44959400D01*
X115315939Y-44459400D02*
X115173081Y-44530828D01*
X115173081Y-44530828D02*
X114887367Y-44530828D01*
X114887367Y-44530828D02*
X114744510Y-44459400D01*
X114744510Y-44459400D02*
X114673081Y-44387971D01*
X114673081Y-44387971D02*
X114601653Y-44245114D01*
X114601653Y-44245114D02*
X114601653Y-43816542D01*
X114601653Y-43816542D02*
X114673081Y-43673685D01*
X114673081Y-43673685D02*
X114744510Y-43602257D01*
X114744510Y-43602257D02*
X114887367Y-43530828D01*
X114887367Y-43530828D02*
X115173081Y-43530828D01*
X115173081Y-43530828D02*
X115315939Y-43602257D01*
X116601653Y-44459400D02*
X116458796Y-44530828D01*
X116458796Y-44530828D02*
X116173082Y-44530828D01*
X116173082Y-44530828D02*
X116030224Y-44459400D01*
X116030224Y-44459400D02*
X115958796Y-44316542D01*
X115958796Y-44316542D02*
X115958796Y-43745114D01*
X115958796Y-43745114D02*
X116030224Y-43602257D01*
X116030224Y-43602257D02*
X116173082Y-43530828D01*
X116173082Y-43530828D02*
X116458796Y-43530828D01*
X116458796Y-43530828D02*
X116601653Y-43602257D01*
X116601653Y-43602257D02*
X116673082Y-43745114D01*
X116673082Y-43745114D02*
X116673082Y-43887971D01*
X116673082Y-43887971D02*
X115958796Y-44030828D01*
X117315938Y-44530828D02*
X117315938Y-43530828D01*
X117315938Y-43816542D02*
X117387367Y-43673685D01*
X117387367Y-43673685D02*
X117458796Y-43602257D01*
X117458796Y-43602257D02*
X117601653Y-43530828D01*
X117601653Y-43530828D02*
X117744510Y-43530828D01*
D12*
X104996666Y-109354819D02*
X104996666Y-110069104D01*
X104996666Y-110069104D02*
X104949047Y-110211961D01*
X104949047Y-110211961D02*
X104853809Y-110307200D01*
X104853809Y-110307200D02*
X104710952Y-110354819D01*
X104710952Y-110354819D02*
X104615714Y-110354819D01*
X105901428Y-109688152D02*
X105901428Y-110354819D01*
X105663333Y-109307200D02*
X105425238Y-110021485D01*
X105425238Y-110021485D02*
X106044285Y-110021485D01*
X115134819Y-98553333D02*
X115849104Y-98553333D01*
X115849104Y-98553333D02*
X115991961Y-98600952D01*
X115991961Y-98600952D02*
X116087200Y-98696190D01*
X116087200Y-98696190D02*
X116134819Y-98839047D01*
X116134819Y-98839047D02*
X116134819Y-98934285D01*
X116134819Y-98029523D02*
X116134819Y-97839047D01*
X116134819Y-97839047D02*
X116087200Y-97743809D01*
X116087200Y-97743809D02*
X116039580Y-97696190D01*
X116039580Y-97696190D02*
X115896723Y-97600952D01*
X115896723Y-97600952D02*
X115706247Y-97553333D01*
X115706247Y-97553333D02*
X115325295Y-97553333D01*
X115325295Y-97553333D02*
X115230057Y-97600952D01*
X115230057Y-97600952D02*
X115182438Y-97648571D01*
X115182438Y-97648571D02*
X115134819Y-97743809D01*
X115134819Y-97743809D02*
X115134819Y-97934285D01*
X115134819Y-97934285D02*
X115182438Y-98029523D01*
X115182438Y-98029523D02*
X115230057Y-98077142D01*
X115230057Y-98077142D02*
X115325295Y-98124761D01*
X115325295Y-98124761D02*
X115563390Y-98124761D01*
X115563390Y-98124761D02*
X115658628Y-98077142D01*
X115658628Y-98077142D02*
X115706247Y-98029523D01*
X115706247Y-98029523D02*
X115753866Y-97934285D01*
X115753866Y-97934285D02*
X115753866Y-97743809D01*
X115753866Y-97743809D02*
X115706247Y-97648571D01*
X115706247Y-97648571D02*
X115658628Y-97600952D01*
X115658628Y-97600952D02*
X115563390Y-97553333D01*
X168844819Y-131936666D02*
X168368628Y-132269999D01*
X168844819Y-132508094D02*
X167844819Y-132508094D01*
X167844819Y-132508094D02*
X167844819Y-132127142D01*
X167844819Y-132127142D02*
X167892438Y-132031904D01*
X167892438Y-132031904D02*
X167940057Y-131984285D01*
X167940057Y-131984285D02*
X168035295Y-131936666D01*
X168035295Y-131936666D02*
X168178152Y-131936666D01*
X168178152Y-131936666D02*
X168273390Y-131984285D01*
X168273390Y-131984285D02*
X168321009Y-132031904D01*
X168321009Y-132031904D02*
X168368628Y-132127142D01*
X168368628Y-132127142D02*
X168368628Y-132508094D01*
X168844819Y-130984285D02*
X168844819Y-131555713D01*
X168844819Y-131269999D02*
X167844819Y-131269999D01*
X167844819Y-131269999D02*
X167987676Y-131365237D01*
X167987676Y-131365237D02*
X168082914Y-131460475D01*
X168082914Y-131460475D02*
X168130533Y-131555713D01*
X114354819Y-83943333D02*
X115069104Y-83943333D01*
X115069104Y-83943333D02*
X115211961Y-83990952D01*
X115211961Y-83990952D02*
X115307200Y-84086190D01*
X115307200Y-84086190D02*
X115354819Y-84229047D01*
X115354819Y-84229047D02*
X115354819Y-84324285D01*
X114783390Y-83324285D02*
X114735771Y-83419523D01*
X114735771Y-83419523D02*
X114688152Y-83467142D01*
X114688152Y-83467142D02*
X114592914Y-83514761D01*
X114592914Y-83514761D02*
X114545295Y-83514761D01*
X114545295Y-83514761D02*
X114450057Y-83467142D01*
X114450057Y-83467142D02*
X114402438Y-83419523D01*
X114402438Y-83419523D02*
X114354819Y-83324285D01*
X114354819Y-83324285D02*
X114354819Y-83133809D01*
X114354819Y-83133809D02*
X114402438Y-83038571D01*
X114402438Y-83038571D02*
X114450057Y-82990952D01*
X114450057Y-82990952D02*
X114545295Y-82943333D01*
X114545295Y-82943333D02*
X114592914Y-82943333D01*
X114592914Y-82943333D02*
X114688152Y-82990952D01*
X114688152Y-82990952D02*
X114735771Y-83038571D01*
X114735771Y-83038571D02*
X114783390Y-83133809D01*
X114783390Y-83133809D02*
X114783390Y-83324285D01*
X114783390Y-83324285D02*
X114831009Y-83419523D01*
X114831009Y-83419523D02*
X114878628Y-83467142D01*
X114878628Y-83467142D02*
X114973866Y-83514761D01*
X114973866Y-83514761D02*
X115164342Y-83514761D01*
X115164342Y-83514761D02*
X115259580Y-83467142D01*
X115259580Y-83467142D02*
X115307200Y-83419523D01*
X115307200Y-83419523D02*
X115354819Y-83324285D01*
X115354819Y-83324285D02*
X115354819Y-83133809D01*
X115354819Y-83133809D02*
X115307200Y-83038571D01*
X115307200Y-83038571D02*
X115259580Y-82990952D01*
X115259580Y-82990952D02*
X115164342Y-82943333D01*
X115164342Y-82943333D02*
X114973866Y-82943333D01*
X114973866Y-82943333D02*
X114878628Y-82990952D01*
X114878628Y-82990952D02*
X114831009Y-83038571D01*
X114831009Y-83038571D02*
X114783390Y-83133809D01*
X154854819Y-44411904D02*
X155664342Y-44411904D01*
X155664342Y-44411904D02*
X155759580Y-44364285D01*
X155759580Y-44364285D02*
X155807200Y-44316666D01*
X155807200Y-44316666D02*
X155854819Y-44221428D01*
X155854819Y-44221428D02*
X155854819Y-44030952D01*
X155854819Y-44030952D02*
X155807200Y-43935714D01*
X155807200Y-43935714D02*
X155759580Y-43888095D01*
X155759580Y-43888095D02*
X155664342Y-43840476D01*
X155664342Y-43840476D02*
X154854819Y-43840476D01*
X155854819Y-42840476D02*
X155854819Y-43411904D01*
X155854819Y-43126190D02*
X154854819Y-43126190D01*
X154854819Y-43126190D02*
X154997676Y-43221428D01*
X154997676Y-43221428D02*
X155092914Y-43316666D01*
X155092914Y-43316666D02*
X155140533Y-43411904D01*
X118700476Y-115434819D02*
X118700476Y-116149104D01*
X118700476Y-116149104D02*
X118652857Y-116291961D01*
X118652857Y-116291961D02*
X118557619Y-116387200D01*
X118557619Y-116387200D02*
X118414762Y-116434819D01*
X118414762Y-116434819D02*
X118319524Y-116434819D01*
X119700476Y-116434819D02*
X119129048Y-116434819D01*
X119414762Y-116434819D02*
X119414762Y-115434819D01*
X119414762Y-115434819D02*
X119319524Y-115577676D01*
X119319524Y-115577676D02*
X119224286Y-115672914D01*
X119224286Y-115672914D02*
X119129048Y-115720533D01*
X120033810Y-115434819D02*
X120652857Y-115434819D01*
X120652857Y-115434819D02*
X120319524Y-115815771D01*
X120319524Y-115815771D02*
X120462381Y-115815771D01*
X120462381Y-115815771D02*
X120557619Y-115863390D01*
X120557619Y-115863390D02*
X120605238Y-115911009D01*
X120605238Y-115911009D02*
X120652857Y-116006247D01*
X120652857Y-116006247D02*
X120652857Y-116244342D01*
X120652857Y-116244342D02*
X120605238Y-116339580D01*
X120605238Y-116339580D02*
X120557619Y-116387200D01*
X120557619Y-116387200D02*
X120462381Y-116434819D01*
X120462381Y-116434819D02*
X120176667Y-116434819D01*
X120176667Y-116434819D02*
X120081429Y-116387200D01*
X120081429Y-116387200D02*
X120033810Y-116339580D01*
X190116666Y-146564819D02*
X190116666Y-147279104D01*
X190116666Y-147279104D02*
X190069047Y-147421961D01*
X190069047Y-147421961D02*
X189973809Y-147517200D01*
X189973809Y-147517200D02*
X189830952Y-147564819D01*
X189830952Y-147564819D02*
X189735714Y-147564819D01*
X191069047Y-146564819D02*
X190592857Y-146564819D01*
X190592857Y-146564819D02*
X190545238Y-147041009D01*
X190545238Y-147041009D02*
X190592857Y-146993390D01*
X190592857Y-146993390D02*
X190688095Y-146945771D01*
X190688095Y-146945771D02*
X190926190Y-146945771D01*
X190926190Y-146945771D02*
X191021428Y-146993390D01*
X191021428Y-146993390D02*
X191069047Y-147041009D01*
X191069047Y-147041009D02*
X191116666Y-147136247D01*
X191116666Y-147136247D02*
X191116666Y-147374342D01*
X191116666Y-147374342D02*
X191069047Y-147469580D01*
X191069047Y-147469580D02*
X191021428Y-147517200D01*
X191021428Y-147517200D02*
X190926190Y-147564819D01*
X190926190Y-147564819D02*
X190688095Y-147564819D01*
X190688095Y-147564819D02*
X190592857Y-147517200D01*
X190592857Y-147517200D02*
X190545238Y-147469580D01*
X129096666Y-39514819D02*
X129096666Y-40229104D01*
X129096666Y-40229104D02*
X129049047Y-40371961D01*
X129049047Y-40371961D02*
X128953809Y-40467200D01*
X128953809Y-40467200D02*
X128810952Y-40514819D01*
X128810952Y-40514819D02*
X128715714Y-40514819D01*
X129477619Y-39514819D02*
X130144285Y-39514819D01*
X130144285Y-39514819D02*
X129715714Y-40514819D01*
X165240476Y-38264819D02*
X165240476Y-38979104D01*
X165240476Y-38979104D02*
X165192857Y-39121961D01*
X165192857Y-39121961D02*
X165097619Y-39217200D01*
X165097619Y-39217200D02*
X164954762Y-39264819D01*
X164954762Y-39264819D02*
X164859524Y-39264819D01*
X166240476Y-39264819D02*
X165669048Y-39264819D01*
X165954762Y-39264819D02*
X165954762Y-38264819D01*
X165954762Y-38264819D02*
X165859524Y-38407676D01*
X165859524Y-38407676D02*
X165764286Y-38502914D01*
X165764286Y-38502914D02*
X165669048Y-38550533D01*
X167192857Y-39264819D02*
X166621429Y-39264819D01*
X166907143Y-39264819D02*
X166907143Y-38264819D01*
X166907143Y-38264819D02*
X166811905Y-38407676D01*
X166811905Y-38407676D02*
X166716667Y-38502914D01*
X166716667Y-38502914D02*
X166621429Y-38550533D01*
X111213333Y-78784819D02*
X110880000Y-78308628D01*
X110641905Y-78784819D02*
X110641905Y-77784819D01*
X110641905Y-77784819D02*
X111022857Y-77784819D01*
X111022857Y-77784819D02*
X111118095Y-77832438D01*
X111118095Y-77832438D02*
X111165714Y-77880057D01*
X111165714Y-77880057D02*
X111213333Y-77975295D01*
X111213333Y-77975295D02*
X111213333Y-78118152D01*
X111213333Y-78118152D02*
X111165714Y-78213390D01*
X111165714Y-78213390D02*
X111118095Y-78261009D01*
X111118095Y-78261009D02*
X111022857Y-78308628D01*
X111022857Y-78308628D02*
X110641905Y-78308628D01*
X111546667Y-77784819D02*
X112165714Y-77784819D01*
X112165714Y-77784819D02*
X111832381Y-78165771D01*
X111832381Y-78165771D02*
X111975238Y-78165771D01*
X111975238Y-78165771D02*
X112070476Y-78213390D01*
X112070476Y-78213390D02*
X112118095Y-78261009D01*
X112118095Y-78261009D02*
X112165714Y-78356247D01*
X112165714Y-78356247D02*
X112165714Y-78594342D01*
X112165714Y-78594342D02*
X112118095Y-78689580D01*
X112118095Y-78689580D02*
X112070476Y-78737200D01*
X112070476Y-78737200D02*
X111975238Y-78784819D01*
X111975238Y-78784819D02*
X111689524Y-78784819D01*
X111689524Y-78784819D02*
X111594286Y-78737200D01*
X111594286Y-78737200D02*
X111546667Y-78689580D01*
X102860476Y-47234819D02*
X102860476Y-47949104D01*
X102860476Y-47949104D02*
X102812857Y-48091961D01*
X102812857Y-48091961D02*
X102717619Y-48187200D01*
X102717619Y-48187200D02*
X102574762Y-48234819D01*
X102574762Y-48234819D02*
X102479524Y-48234819D01*
X103860476Y-48234819D02*
X103289048Y-48234819D01*
X103574762Y-48234819D02*
X103574762Y-47234819D01*
X103574762Y-47234819D02*
X103479524Y-47377676D01*
X103479524Y-47377676D02*
X103384286Y-47472914D01*
X103384286Y-47472914D02*
X103289048Y-47520533D01*
X104479524Y-47234819D02*
X104574762Y-47234819D01*
X104574762Y-47234819D02*
X104670000Y-47282438D01*
X104670000Y-47282438D02*
X104717619Y-47330057D01*
X104717619Y-47330057D02*
X104765238Y-47425295D01*
X104765238Y-47425295D02*
X104812857Y-47615771D01*
X104812857Y-47615771D02*
X104812857Y-47853866D01*
X104812857Y-47853866D02*
X104765238Y-48044342D01*
X104765238Y-48044342D02*
X104717619Y-48139580D01*
X104717619Y-48139580D02*
X104670000Y-48187200D01*
X104670000Y-48187200D02*
X104574762Y-48234819D01*
X104574762Y-48234819D02*
X104479524Y-48234819D01*
X104479524Y-48234819D02*
X104384286Y-48187200D01*
X104384286Y-48187200D02*
X104336667Y-48139580D01*
X104336667Y-48139580D02*
X104289048Y-48044342D01*
X104289048Y-48044342D02*
X104241429Y-47853866D01*
X104241429Y-47853866D02*
X104241429Y-47615771D01*
X104241429Y-47615771D02*
X104289048Y-47425295D01*
X104289048Y-47425295D02*
X104336667Y-47330057D01*
X104336667Y-47330057D02*
X104384286Y-47282438D01*
X104384286Y-47282438D02*
X104479524Y-47234819D01*
X150679166Y-114677319D02*
X150679166Y-115391604D01*
X150679166Y-115391604D02*
X150631547Y-115534461D01*
X150631547Y-115534461D02*
X150536309Y-115629700D01*
X150536309Y-115629700D02*
X150393452Y-115677319D01*
X150393452Y-115677319D02*
X150298214Y-115677319D01*
X151679166Y-115677319D02*
X151107738Y-115677319D01*
X151393452Y-115677319D02*
X151393452Y-114677319D01*
X151393452Y-114677319D02*
X151298214Y-114820176D01*
X151298214Y-114820176D02*
X151202976Y-114915414D01*
X151202976Y-114915414D02*
X151107738Y-114963033D01*
X111484819Y-141876666D02*
X111008628Y-142209999D01*
X111484819Y-142448094D02*
X110484819Y-142448094D01*
X110484819Y-142448094D02*
X110484819Y-142067142D01*
X110484819Y-142067142D02*
X110532438Y-141971904D01*
X110532438Y-141971904D02*
X110580057Y-141924285D01*
X110580057Y-141924285D02*
X110675295Y-141876666D01*
X110675295Y-141876666D02*
X110818152Y-141876666D01*
X110818152Y-141876666D02*
X110913390Y-141924285D01*
X110913390Y-141924285D02*
X110961009Y-141971904D01*
X110961009Y-141971904D02*
X111008628Y-142067142D01*
X111008628Y-142067142D02*
X111008628Y-142448094D01*
X110580057Y-141495713D02*
X110532438Y-141448094D01*
X110532438Y-141448094D02*
X110484819Y-141352856D01*
X110484819Y-141352856D02*
X110484819Y-141114761D01*
X110484819Y-141114761D02*
X110532438Y-141019523D01*
X110532438Y-141019523D02*
X110580057Y-140971904D01*
X110580057Y-140971904D02*
X110675295Y-140924285D01*
X110675295Y-140924285D02*
X110770533Y-140924285D01*
X110770533Y-140924285D02*
X110913390Y-140971904D01*
X110913390Y-140971904D02*
X111484819Y-141543332D01*
X111484819Y-141543332D02*
X111484819Y-140924285D01*
X130299166Y-114677319D02*
X130299166Y-115391604D01*
X130299166Y-115391604D02*
X130251547Y-115534461D01*
X130251547Y-115534461D02*
X130156309Y-115629700D01*
X130156309Y-115629700D02*
X130013452Y-115677319D01*
X130013452Y-115677319D02*
X129918214Y-115677319D01*
X130727738Y-114772557D02*
X130775357Y-114724938D01*
X130775357Y-114724938D02*
X130870595Y-114677319D01*
X130870595Y-114677319D02*
X131108690Y-114677319D01*
X131108690Y-114677319D02*
X131203928Y-114724938D01*
X131203928Y-114724938D02*
X131251547Y-114772557D01*
X131251547Y-114772557D02*
X131299166Y-114867795D01*
X131299166Y-114867795D02*
X131299166Y-114963033D01*
X131299166Y-114963033D02*
X131251547Y-115105890D01*
X131251547Y-115105890D02*
X130680119Y-115677319D01*
X130680119Y-115677319D02*
X131299166Y-115677319D01*
X137236666Y-123194819D02*
X137236666Y-123909104D01*
X137236666Y-123909104D02*
X137189047Y-124051961D01*
X137189047Y-124051961D02*
X137093809Y-124147200D01*
X137093809Y-124147200D02*
X136950952Y-124194819D01*
X136950952Y-124194819D02*
X136855714Y-124194819D01*
X137617619Y-123194819D02*
X138236666Y-123194819D01*
X138236666Y-123194819D02*
X137903333Y-123575771D01*
X137903333Y-123575771D02*
X138046190Y-123575771D01*
X138046190Y-123575771D02*
X138141428Y-123623390D01*
X138141428Y-123623390D02*
X138189047Y-123671009D01*
X138189047Y-123671009D02*
X138236666Y-123766247D01*
X138236666Y-123766247D02*
X138236666Y-124004342D01*
X138236666Y-124004342D02*
X138189047Y-124099580D01*
X138189047Y-124099580D02*
X138141428Y-124147200D01*
X138141428Y-124147200D02*
X138046190Y-124194819D01*
X138046190Y-124194819D02*
X137760476Y-124194819D01*
X137760476Y-124194819D02*
X137665238Y-124147200D01*
X137665238Y-124147200D02*
X137617619Y-124099580D01*
%TO.C,J4*%
D13*
X102980000Y-113730000D02*
X102980000Y-129030000D01*
X102980000Y-113730000D02*
X105640000Y-113730000D01*
X102980000Y-129030000D02*
X105640000Y-129030000D01*
X104310000Y-111130000D02*
X105640000Y-111130000D01*
X105640000Y-111130000D02*
X105640000Y-112460000D01*
X105640000Y-113730000D02*
X105640000Y-129030000D01*
%TO.C,J9*%
X109040000Y-96890000D02*
X109040000Y-99550000D01*
X111640000Y-96890000D02*
X109040000Y-96890000D01*
X111640000Y-96890000D02*
X111640000Y-99550000D01*
X111640000Y-99550000D02*
X109040000Y-99550000D01*
X114240000Y-98220000D02*
X114240000Y-99550000D01*
X114240000Y-99550000D02*
X112910000Y-99550000D01*
%TO.C,R1*%
X166020000Y-127730000D02*
X166020000Y-128500000D01*
X166020000Y-135810000D02*
X166020000Y-135040000D01*
X164650000Y-128500000D02*
X167390000Y-128500000D01*
X167390000Y-135040000D01*
X164650000Y-135040000D01*
X164650000Y-128500000D01*
%TO.C,J8*%
X108260000Y-82280000D02*
X108260000Y-84940000D01*
X110860000Y-82280000D02*
X108260000Y-82280000D01*
X110860000Y-82280000D02*
X110860000Y-84940000D01*
X110860000Y-84940000D02*
X108260000Y-84940000D01*
X113460000Y-83610000D02*
X113460000Y-84940000D01*
X113460000Y-84940000D02*
X112130000Y-84940000D01*
%TO.C,U1*%
X138690000Y-38540000D02*
X138690000Y-48760000D01*
X138690000Y-38540000D02*
X154560000Y-38540000D01*
X138690000Y-40625000D02*
X136250000Y-40625000D01*
X138690000Y-41595000D02*
X136250000Y-41595000D01*
X138690000Y-43165000D02*
X136250000Y-43165000D01*
X138690000Y-44135000D02*
X136250000Y-44135000D01*
X138690000Y-45705000D02*
X136250000Y-45705000D01*
X138690000Y-46675000D02*
X136250000Y-46675000D01*
X138690000Y-48760000D02*
X154560000Y-48760000D01*
X154560000Y-38540000D02*
X154560000Y-48760000D01*
%TO.C,J13*%
X118180000Y-120020000D02*
X118180000Y-122620000D01*
X118180000Y-120020000D02*
X120840000Y-120020000D01*
X118180000Y-122620000D02*
X120840000Y-122620000D01*
X119510000Y-117420000D02*
X120840000Y-117420000D01*
X120840000Y-117420000D02*
X120840000Y-118750000D01*
X120840000Y-120020000D02*
X120840000Y-122620000D01*
%TO.C,J5*%
X186290000Y-144560000D02*
X186290000Y-136880000D01*
X186290000Y-147160000D02*
X186290000Y-145830000D01*
X187620000Y-147160000D02*
X186290000Y-147160000D01*
X188950000Y-136880000D02*
X186290000Y-136880000D01*
X188950000Y-144560000D02*
X186290000Y-144560000D01*
X188950000Y-144560000D02*
X188950000Y-136880000D01*
%TO.C,J7*%
X124810000Y-41110000D02*
X124810000Y-48790000D01*
X124810000Y-41110000D02*
X127470000Y-41110000D01*
X124810000Y-48790000D02*
X127470000Y-48790000D01*
X126140000Y-38510000D02*
X127470000Y-38510000D01*
X127470000Y-38510000D02*
X127470000Y-39840000D01*
X127470000Y-41110000D02*
X127470000Y-48790000D01*
%TO.C,J11*%
X161590000Y-41680000D02*
X161590000Y-46820000D01*
X161590000Y-41680000D02*
X164250000Y-41680000D01*
X161590000Y-46820000D02*
X164250000Y-46820000D01*
X162920000Y-39080000D02*
X164250000Y-39080000D01*
X164250000Y-39080000D02*
X164250000Y-40410000D01*
X164250000Y-41680000D02*
X164250000Y-46820000D01*
%TO.C,R3*%
X107340000Y-75960000D02*
X108110000Y-75960000D01*
X115420000Y-75960000D02*
X114650000Y-75960000D01*
X108110000Y-74590000D02*
X114650000Y-74590000D01*
X114650000Y-77330000D01*
X108110000Y-77330000D01*
X108110000Y-74590000D01*
%TO.C,J10*%
X102340000Y-43740000D02*
X102340000Y-41140000D01*
X102340000Y-46340000D02*
X102340000Y-45010000D01*
X103670000Y-46340000D02*
X102340000Y-46340000D01*
X105000000Y-41140000D02*
X102340000Y-41140000D01*
X105000000Y-43740000D02*
X102340000Y-43740000D01*
X105000000Y-43740000D02*
X105000000Y-41140000D01*
%TO.C,J1*%
X149100000Y-109970000D02*
X149100000Y-74350000D01*
X149100000Y-112570000D02*
X149100000Y-111240000D01*
X150430000Y-112570000D02*
X149100000Y-112570000D01*
X151760000Y-74350000D02*
X149100000Y-74350000D01*
X151760000Y-109970000D02*
X149100000Y-109970000D01*
X151760000Y-109970000D02*
X151760000Y-74350000D01*
%TO.C,R2*%
X115310000Y-137140000D02*
X115310000Y-137910000D01*
X115310000Y-145220000D02*
X115310000Y-144450000D01*
X113940000Y-137910000D02*
X116680000Y-137910000D01*
X116680000Y-144450000D01*
X113940000Y-144450000D01*
X113940000Y-137910000D01*
%TO.C,J2*%
X128720000Y-109970000D02*
X128720000Y-74350000D01*
X128720000Y-112570000D02*
X128720000Y-111240000D01*
X130050000Y-112570000D02*
X128720000Y-112570000D01*
X131380000Y-74350000D02*
X128720000Y-74350000D01*
X131380000Y-109970000D02*
X128720000Y-109970000D01*
X131380000Y-109970000D02*
X131380000Y-74350000D01*
%TO.C,J3*%
X135510000Y-127810000D02*
X135510000Y-145650000D01*
X135510000Y-127810000D02*
X138170000Y-127810000D01*
X135510000Y-145650000D02*
X138170000Y-145650000D01*
X136840000Y-125210000D02*
X138170000Y-125210000D01*
X138170000Y-125210000D02*
X138170000Y-126540000D01*
X138170000Y-127810000D02*
X138170000Y-145650000D01*
%TD*%
M02*
