M48
; DRILL file KiCad 10.0.3 date 2026-07-08T18:21:21
; FORMAT={-:-/ absolute / metric / decimal}
; #@! TF.CreationDate,2026-07-08T18:21:21+05:30
; #@! TF.GenerationSoftware,Kicad,Pcbnew,10.0.3
; #@! TF.FileFunction,Plated,1,2,PTH
FMAT,2
METRIC
; #@! TA.AperFunction,Plated,PTH,ViaDrill
T1C0.300
; #@! TA.AperFunction,Plated,PTH,ComponentDrill
T2C0.800
; #@! TA.AperFunction,Plated,PTH,ComponentDrill
T3C0.950
; #@! TA.AperFunction,Plated,PTH,ComponentDrill
T4C1.000
; #@! TA.AperFunction,Plated,PTH,ComponentDrill
T5C1.100
%
G90
G05
T1
X123.64Y-75.91
X126.55Y-82.46
X127.13Y-69.02
X128.83Y-52.07
X141.38Y-128.68
X145.25Y-129.68
X146.84Y-134.14
X161.35Y-119.59
X162.53Y-66.62
X166.41Y-60.6
X187.63Y-102.4
X192.4Y-76.1
X192.73Y-48.73
X193.697Y-42.68
T2
X106.3Y-75.96
X115.31Y-136.1
X115.31Y-146.26
X116.46Y-75.96
X166.02Y-126.69
X166.02Y-136.85
T3
X151.17Y-121.52
X151.17Y-124.02
X151.17Y-126.52
T4
X103.67Y-42.47
X103.67Y-45.01
X104.31Y-112.46
X104.31Y-115.0
X104.31Y-117.54
X104.31Y-120.08
X104.31Y-122.62
X104.31Y-125.16
X104.31Y-127.7
X109.59Y-83.61
X110.37Y-98.22
X112.13Y-83.61
X112.91Y-98.22
X119.51Y-118.75
X119.51Y-121.29
X126.14Y-39.84
X126.14Y-42.38
X126.14Y-44.92
X126.14Y-47.46
X130.05Y-75.68
X130.05Y-78.22
X130.05Y-80.76
X130.05Y-83.3
X130.05Y-85.84
X130.05Y-88.38
X130.05Y-90.92
X130.05Y-93.46
X130.05Y-96.0
X130.05Y-98.54
X130.05Y-101.08
X130.05Y-103.62
X130.05Y-106.16
X130.05Y-108.7
X130.05Y-111.24
X136.84Y-126.54
X136.84Y-129.08
X136.84Y-131.62
X136.84Y-134.16
X136.84Y-136.7
X136.84Y-139.24
X136.84Y-141.78
X136.84Y-144.32
X150.43Y-75.68
X150.43Y-78.22
X150.43Y-80.76
X150.43Y-83.3
X150.43Y-85.84
X150.43Y-88.38
X150.43Y-90.92
X150.43Y-93.46
X150.43Y-96.0
X150.43Y-98.54
X150.43Y-101.08
X150.43Y-103.62
X150.43Y-106.16
X150.43Y-108.7
X150.43Y-111.24
X162.92Y-40.41
X162.92Y-42.95
X162.92Y-45.49
X174.5Y-42.13
X174.5Y-44.67
X187.62Y-138.21
X187.62Y-140.75
X187.62Y-143.29
X187.62Y-145.83
X188.81Y-79.542
X188.81Y-84.542
X191.84Y-42.04
X191.84Y-44.58
T5
X134.99Y-41.11
X134.99Y-43.65
X134.99Y-46.19
X162.12Y-78.05
X162.12Y-88.21
X172.16Y-75.21
X174.7Y-75.21
X177.24Y-75.21
M30
