%TF.GenerationSoftware,KiCad,Pcbnew,10.0.3*%
%TF.CreationDate,2026-07-08T18:21:00+05:30*%
%TF.ProjectId,cerement pcb,63657265-6d65-46e7-9420-7063622e6b69,rev?*%
%TF.SameCoordinates,Original*%
%TF.FileFunction,Legend,Bot*%
%TF.FilePolarity,Positive*%
%FSLAX46Y46*%
G04 Gerber Fmt 4.6, Leading zero omitted, Abs format (unit mm)*
G04 Created by KiCad (PCBNEW 10.0.3) date 2026-07-08 18:21:00*
%MOMM*%
%LPD*%
G01*
G04 APERTURE LIST*
%ADD10C,0.100000*%
%ADD11C,0.150000*%
%ADD12C,0.120000*%
G04 APERTURE END LIST*
D10*
X153871506Y-62522419D02*
X153252459Y-62522419D01*
X153252459Y-62522419D02*
X153585792Y-62903371D01*
X153585792Y-62903371D02*
X153442935Y-62903371D01*
X153442935Y-62903371D02*
X153347697Y-62950990D01*
X153347697Y-62950990D02*
X153300078Y-62998609D01*
X153300078Y-62998609D02*
X153252459Y-63093847D01*
X153252459Y-63093847D02*
X153252459Y-63331942D01*
X153252459Y-63331942D02*
X153300078Y-63427180D01*
X153300078Y-63427180D02*
X153347697Y-63474800D01*
X153347697Y-63474800D02*
X153442935Y-63522419D01*
X153442935Y-63522419D02*
X153728649Y-63522419D01*
X153728649Y-63522419D02*
X153823887Y-63474800D01*
X153823887Y-63474800D02*
X153871506Y-63427180D01*
X152823887Y-63427180D02*
X152776268Y-63474800D01*
X152776268Y-63474800D02*
X152823887Y-63522419D01*
X152823887Y-63522419D02*
X152871506Y-63474800D01*
X152871506Y-63474800D02*
X152823887Y-63427180D01*
X152823887Y-63427180D02*
X152823887Y-63522419D01*
X152442935Y-62522419D02*
X151776269Y-62522419D01*
X151776269Y-62522419D02*
X152204840Y-63522419D01*
X151538173Y-62522419D02*
X151204840Y-63522419D01*
X151204840Y-63522419D02*
X150871507Y-62522419D01*
X149919125Y-62522419D02*
X149347697Y-62522419D01*
X149633411Y-63522419D02*
X149633411Y-62522419D01*
X148442935Y-63427180D02*
X148490554Y-63474800D01*
X148490554Y-63474800D02*
X148633411Y-63522419D01*
X148633411Y-63522419D02*
X148728649Y-63522419D01*
X148728649Y-63522419D02*
X148871506Y-63474800D01*
X148871506Y-63474800D02*
X148966744Y-63379561D01*
X148966744Y-63379561D02*
X149014363Y-63284323D01*
X149014363Y-63284323D02*
X149061982Y-63093847D01*
X149061982Y-63093847D02*
X149061982Y-62950990D01*
X149061982Y-62950990D02*
X149014363Y-62760514D01*
X149014363Y-62760514D02*
X148966744Y-62665276D01*
X148966744Y-62665276D02*
X148871506Y-62570038D01*
X148871506Y-62570038D02*
X148728649Y-62522419D01*
X148728649Y-62522419D02*
X148633411Y-62522419D01*
X148633411Y-62522419D02*
X148490554Y-62570038D01*
X148490554Y-62570038D02*
X148442935Y-62617657D01*
X147442935Y-63522419D02*
X147776268Y-63046228D01*
X148014363Y-63522419D02*
X148014363Y-62522419D01*
X148014363Y-62522419D02*
X147633411Y-62522419D01*
X147633411Y-62522419D02*
X147538173Y-62570038D01*
X147538173Y-62570038D02*
X147490554Y-62617657D01*
X147490554Y-62617657D02*
X147442935Y-62712895D01*
X147442935Y-62712895D02*
X147442935Y-62855752D01*
X147442935Y-62855752D02*
X147490554Y-62950990D01*
X147490554Y-62950990D02*
X147538173Y-62998609D01*
X147538173Y-62998609D02*
X147633411Y-63046228D01*
X147633411Y-63046228D02*
X148014363Y-63046228D01*
X145728649Y-63522419D02*
X146300077Y-63522419D01*
X146014363Y-63522419D02*
X146014363Y-62522419D01*
X146014363Y-62522419D02*
X146109601Y-62665276D01*
X146109601Y-62665276D02*
X146204839Y-62760514D01*
X146204839Y-62760514D02*
X146300077Y-62808133D01*
X145157220Y-62950990D02*
X145252458Y-62903371D01*
X145252458Y-62903371D02*
X145300077Y-62855752D01*
X145300077Y-62855752D02*
X145347696Y-62760514D01*
X145347696Y-62760514D02*
X145347696Y-62712895D01*
X145347696Y-62712895D02*
X145300077Y-62617657D01*
X145300077Y-62617657D02*
X145252458Y-62570038D01*
X145252458Y-62570038D02*
X145157220Y-62522419D01*
X145157220Y-62522419D02*
X144966744Y-62522419D01*
X144966744Y-62522419D02*
X144871506Y-62570038D01*
X144871506Y-62570038D02*
X144823887Y-62617657D01*
X144823887Y-62617657D02*
X144776268Y-62712895D01*
X144776268Y-62712895D02*
X144776268Y-62760514D01*
X144776268Y-62760514D02*
X144823887Y-62855752D01*
X144823887Y-62855752D02*
X144871506Y-62903371D01*
X144871506Y-62903371D02*
X144966744Y-62950990D01*
X144966744Y-62950990D02*
X145157220Y-62950990D01*
X145157220Y-62950990D02*
X145252458Y-62998609D01*
X145252458Y-62998609D02*
X145300077Y-63046228D01*
X145300077Y-63046228D02*
X145347696Y-63141466D01*
X145347696Y-63141466D02*
X145347696Y-63331942D01*
X145347696Y-63331942D02*
X145300077Y-63427180D01*
X145300077Y-63427180D02*
X145252458Y-63474800D01*
X145252458Y-63474800D02*
X145157220Y-63522419D01*
X145157220Y-63522419D02*
X144966744Y-63522419D01*
X144966744Y-63522419D02*
X144871506Y-63474800D01*
X144871506Y-63474800D02*
X144823887Y-63427180D01*
X144823887Y-63427180D02*
X144776268Y-63331942D01*
X144776268Y-63331942D02*
X144776268Y-63141466D01*
X144776268Y-63141466D02*
X144823887Y-63046228D01*
X144823887Y-63046228D02*
X144871506Y-62998609D01*
X144871506Y-62998609D02*
X144966744Y-62950990D01*
X143919125Y-62522419D02*
X144109601Y-62522419D01*
X144109601Y-62522419D02*
X144204839Y-62570038D01*
X144204839Y-62570038D02*
X144252458Y-62617657D01*
X144252458Y-62617657D02*
X144347696Y-62760514D01*
X144347696Y-62760514D02*
X144395315Y-62950990D01*
X144395315Y-62950990D02*
X144395315Y-63331942D01*
X144395315Y-63331942D02*
X144347696Y-63427180D01*
X144347696Y-63427180D02*
X144300077Y-63474800D01*
X144300077Y-63474800D02*
X144204839Y-63522419D01*
X144204839Y-63522419D02*
X144014363Y-63522419D01*
X144014363Y-63522419D02*
X143919125Y-63474800D01*
X143919125Y-63474800D02*
X143871506Y-63427180D01*
X143871506Y-63427180D02*
X143823887Y-63331942D01*
X143823887Y-63331942D02*
X143823887Y-63093847D01*
X143823887Y-63093847D02*
X143871506Y-62998609D01*
X143871506Y-62998609D02*
X143919125Y-62950990D01*
X143919125Y-62950990D02*
X144014363Y-62903371D01*
X144014363Y-62903371D02*
X144204839Y-62903371D01*
X144204839Y-62903371D02*
X144300077Y-62950990D01*
X144300077Y-62950990D02*
X144347696Y-62998609D01*
X144347696Y-62998609D02*
X144395315Y-63093847D01*
X142919125Y-62522419D02*
X143395315Y-62522419D01*
X143395315Y-62522419D02*
X143442934Y-62998609D01*
X143442934Y-62998609D02*
X143395315Y-62950990D01*
X143395315Y-62950990D02*
X143300077Y-62903371D01*
X143300077Y-62903371D02*
X143061982Y-62903371D01*
X143061982Y-62903371D02*
X142966744Y-62950990D01*
X142966744Y-62950990D02*
X142919125Y-62998609D01*
X142919125Y-62998609D02*
X142871506Y-63093847D01*
X142871506Y-63093847D02*
X142871506Y-63331942D01*
X142871506Y-63331942D02*
X142919125Y-63427180D01*
X142919125Y-63427180D02*
X142966744Y-63474800D01*
X142966744Y-63474800D02*
X143061982Y-63522419D01*
X143061982Y-63522419D02*
X143300077Y-63522419D01*
X143300077Y-63522419D02*
X143395315Y-63474800D01*
X143395315Y-63474800D02*
X143442934Y-63427180D01*
X142252458Y-62522419D02*
X142157220Y-62522419D01*
X142157220Y-62522419D02*
X142061982Y-62570038D01*
X142061982Y-62570038D02*
X142014363Y-62617657D01*
X142014363Y-62617657D02*
X141966744Y-62712895D01*
X141966744Y-62712895D02*
X141919125Y-62903371D01*
X141919125Y-62903371D02*
X141919125Y-63141466D01*
X141919125Y-63141466D02*
X141966744Y-63331942D01*
X141966744Y-63331942D02*
X142014363Y-63427180D01*
X142014363Y-63427180D02*
X142061982Y-63474800D01*
X142061982Y-63474800D02*
X142157220Y-63522419D01*
X142157220Y-63522419D02*
X142252458Y-63522419D01*
X142252458Y-63522419D02*
X142347696Y-63474800D01*
X142347696Y-63474800D02*
X142395315Y-63427180D01*
X142395315Y-63427180D02*
X142442934Y-63331942D01*
X142442934Y-63331942D02*
X142490553Y-63141466D01*
X142490553Y-63141466D02*
X142490553Y-62903371D01*
X142490553Y-62903371D02*
X142442934Y-62712895D01*
X142442934Y-62712895D02*
X142395315Y-62617657D01*
X142395315Y-62617657D02*
X142347696Y-62570038D01*
X142347696Y-62570038D02*
X142252458Y-62522419D01*
X140728648Y-63522419D02*
X140728648Y-62855752D01*
X140728648Y-62950990D02*
X140681029Y-62903371D01*
X140681029Y-62903371D02*
X140585791Y-62855752D01*
X140585791Y-62855752D02*
X140442934Y-62855752D01*
X140442934Y-62855752D02*
X140347696Y-62903371D01*
X140347696Y-62903371D02*
X140300077Y-62998609D01*
X140300077Y-62998609D02*
X140300077Y-63522419D01*
X140300077Y-62998609D02*
X140252458Y-62903371D01*
X140252458Y-62903371D02*
X140157220Y-62855752D01*
X140157220Y-62855752D02*
X140014363Y-62855752D01*
X140014363Y-62855752D02*
X139919124Y-62903371D01*
X139919124Y-62903371D02*
X139871505Y-62998609D01*
X139871505Y-62998609D02*
X139871505Y-63522419D01*
X139252458Y-63522419D02*
X139347696Y-63474800D01*
X139347696Y-63474800D02*
X139395315Y-63427180D01*
X139395315Y-63427180D02*
X139442934Y-63331942D01*
X139442934Y-63331942D02*
X139442934Y-63046228D01*
X139442934Y-63046228D02*
X139395315Y-62950990D01*
X139395315Y-62950990D02*
X139347696Y-62903371D01*
X139347696Y-62903371D02*
X139252458Y-62855752D01*
X139252458Y-62855752D02*
X139109601Y-62855752D01*
X139109601Y-62855752D02*
X139014363Y-62903371D01*
X139014363Y-62903371D02*
X138966744Y-62950990D01*
X138966744Y-62950990D02*
X138919125Y-63046228D01*
X138919125Y-63046228D02*
X138919125Y-63331942D01*
X138919125Y-63331942D02*
X138966744Y-63427180D01*
X138966744Y-63427180D02*
X139014363Y-63474800D01*
X139014363Y-63474800D02*
X139109601Y-63522419D01*
X139109601Y-63522419D02*
X139252458Y-63522419D01*
X138347696Y-63522419D02*
X138442934Y-63474800D01*
X138442934Y-63474800D02*
X138490553Y-63427180D01*
X138490553Y-63427180D02*
X138538172Y-63331942D01*
X138538172Y-63331942D02*
X138538172Y-63046228D01*
X138538172Y-63046228D02*
X138490553Y-62950990D01*
X138490553Y-62950990D02*
X138442934Y-62903371D01*
X138442934Y-62903371D02*
X138347696Y-62855752D01*
X138347696Y-62855752D02*
X138204839Y-62855752D01*
X138204839Y-62855752D02*
X138109601Y-62903371D01*
X138109601Y-62903371D02*
X138061982Y-62950990D01*
X138061982Y-62950990D02*
X138014363Y-63046228D01*
X138014363Y-63046228D02*
X138014363Y-63331942D01*
X138014363Y-63331942D02*
X138061982Y-63427180D01*
X138061982Y-63427180D02*
X138109601Y-63474800D01*
X138109601Y-63474800D02*
X138204839Y-63522419D01*
X138204839Y-63522419D02*
X138347696Y-63522419D01*
X137157220Y-63522419D02*
X137157220Y-62522419D01*
X137157220Y-63474800D02*
X137252458Y-63522419D01*
X137252458Y-63522419D02*
X137442934Y-63522419D01*
X137442934Y-63522419D02*
X137538172Y-63474800D01*
X137538172Y-63474800D02*
X137585791Y-63427180D01*
X137585791Y-63427180D02*
X137633410Y-63331942D01*
X137633410Y-63331942D02*
X137633410Y-63046228D01*
X137633410Y-63046228D02*
X137585791Y-62950990D01*
X137585791Y-62950990D02*
X137538172Y-62903371D01*
X137538172Y-62903371D02*
X137442934Y-62855752D01*
X137442934Y-62855752D02*
X137252458Y-62855752D01*
X137252458Y-62855752D02*
X137157220Y-62903371D01*
X136300077Y-63474800D02*
X136395315Y-63522419D01*
X136395315Y-63522419D02*
X136585791Y-63522419D01*
X136585791Y-63522419D02*
X136681029Y-63474800D01*
X136681029Y-63474800D02*
X136728648Y-63379561D01*
X136728648Y-63379561D02*
X136728648Y-62998609D01*
X136728648Y-62998609D02*
X136681029Y-62903371D01*
X136681029Y-62903371D02*
X136585791Y-62855752D01*
X136585791Y-62855752D02*
X136395315Y-62855752D01*
X136395315Y-62855752D02*
X136300077Y-62903371D01*
X136300077Y-62903371D02*
X136252458Y-62998609D01*
X136252458Y-62998609D02*
X136252458Y-63093847D01*
X136252458Y-63093847D02*
X136728648Y-63189085D01*
X135681029Y-63522419D02*
X135776267Y-63474800D01*
X135776267Y-63474800D02*
X135823886Y-63379561D01*
X135823886Y-63379561D02*
X135823886Y-62522419D01*
X134538171Y-63522419D02*
X134538171Y-62522419D01*
X134538171Y-62903371D02*
X134442933Y-62855752D01*
X134442933Y-62855752D02*
X134252457Y-62855752D01*
X134252457Y-62855752D02*
X134157219Y-62903371D01*
X134157219Y-62903371D02*
X134109600Y-62950990D01*
X134109600Y-62950990D02*
X134061981Y-63046228D01*
X134061981Y-63046228D02*
X134061981Y-63331942D01*
X134061981Y-63331942D02*
X134109600Y-63427180D01*
X134109600Y-63427180D02*
X134157219Y-63474800D01*
X134157219Y-63474800D02*
X134252457Y-63522419D01*
X134252457Y-63522419D02*
X134442933Y-63522419D01*
X134442933Y-63522419D02*
X134538171Y-63474800D01*
X133204838Y-63522419D02*
X133204838Y-62998609D01*
X133204838Y-62998609D02*
X133252457Y-62903371D01*
X133252457Y-62903371D02*
X133347695Y-62855752D01*
X133347695Y-62855752D02*
X133538171Y-62855752D01*
X133538171Y-62855752D02*
X133633409Y-62903371D01*
X133204838Y-63474800D02*
X133300076Y-63522419D01*
X133300076Y-63522419D02*
X133538171Y-63522419D01*
X133538171Y-63522419D02*
X133633409Y-63474800D01*
X133633409Y-63474800D02*
X133681028Y-63379561D01*
X133681028Y-63379561D02*
X133681028Y-63284323D01*
X133681028Y-63284323D02*
X133633409Y-63189085D01*
X133633409Y-63189085D02*
X133538171Y-63141466D01*
X133538171Y-63141466D02*
X133300076Y-63141466D01*
X133300076Y-63141466D02*
X133204838Y-63093847D01*
X132871504Y-62855752D02*
X132490552Y-62855752D01*
X132728647Y-62522419D02*
X132728647Y-63379561D01*
X132728647Y-63379561D02*
X132681028Y-63474800D01*
X132681028Y-63474800D02*
X132585790Y-63522419D01*
X132585790Y-63522419D02*
X132490552Y-63522419D01*
X132300075Y-62855752D02*
X131919123Y-62855752D01*
X132157218Y-62522419D02*
X132157218Y-63379561D01*
X132157218Y-63379561D02*
X132109599Y-63474800D01*
X132109599Y-63474800D02*
X132014361Y-63522419D01*
X132014361Y-63522419D02*
X131919123Y-63522419D01*
X131204837Y-63474800D02*
X131300075Y-63522419D01*
X131300075Y-63522419D02*
X131490551Y-63522419D01*
X131490551Y-63522419D02*
X131585789Y-63474800D01*
X131585789Y-63474800D02*
X131633408Y-63379561D01*
X131633408Y-63379561D02*
X131633408Y-62998609D01*
X131633408Y-62998609D02*
X131585789Y-62903371D01*
X131585789Y-62903371D02*
X131490551Y-62855752D01*
X131490551Y-62855752D02*
X131300075Y-62855752D01*
X131300075Y-62855752D02*
X131204837Y-62903371D01*
X131204837Y-62903371D02*
X131157218Y-62998609D01*
X131157218Y-62998609D02*
X131157218Y-63093847D01*
X131157218Y-63093847D02*
X131633408Y-63189085D01*
X130728646Y-63522419D02*
X130728646Y-62855752D01*
X130728646Y-63046228D02*
X130681027Y-62950990D01*
X130681027Y-62950990D02*
X130633408Y-62903371D01*
X130633408Y-62903371D02*
X130538170Y-62855752D01*
X130538170Y-62855752D02*
X130442932Y-62855752D01*
X130204836Y-62855752D02*
X129966741Y-63522419D01*
X129728646Y-62855752D02*
X129966741Y-63522419D01*
X129966741Y-63522419D02*
X130061979Y-63760514D01*
X130061979Y-63760514D02*
X130109598Y-63808133D01*
X130109598Y-63808133D02*
X130204836Y-63855752D01*
X187669124Y-43242419D02*
X188240552Y-43242419D01*
X187954838Y-43242419D02*
X187954838Y-42242419D01*
X187954838Y-42242419D02*
X188050076Y-42385276D01*
X188050076Y-42385276D02*
X188145314Y-42480514D01*
X188145314Y-42480514D02*
X188240552Y-42528133D01*
X187288171Y-42337657D02*
X187240552Y-42290038D01*
X187240552Y-42290038D02*
X187145314Y-42242419D01*
X187145314Y-42242419D02*
X186907219Y-42242419D01*
X186907219Y-42242419D02*
X186811981Y-42290038D01*
X186811981Y-42290038D02*
X186764362Y-42337657D01*
X186764362Y-42337657D02*
X186716743Y-42432895D01*
X186716743Y-42432895D02*
X186716743Y-42528133D01*
X186716743Y-42528133D02*
X186764362Y-42670990D01*
X186764362Y-42670990D02*
X187335790Y-43242419D01*
X187335790Y-43242419D02*
X186716743Y-43242419D01*
X186431028Y-42242419D02*
X186097695Y-43242419D01*
X186097695Y-43242419D02*
X185764362Y-42242419D01*
X184669123Y-43242419D02*
X184669123Y-42242419D01*
X184669123Y-42623371D02*
X184573885Y-42575752D01*
X184573885Y-42575752D02*
X184383409Y-42575752D01*
X184383409Y-42575752D02*
X184288171Y-42623371D01*
X184288171Y-42623371D02*
X184240552Y-42670990D01*
X184240552Y-42670990D02*
X184192933Y-42766228D01*
X184192933Y-42766228D02*
X184192933Y-43051942D01*
X184192933Y-43051942D02*
X184240552Y-43147180D01*
X184240552Y-43147180D02*
X184288171Y-43194800D01*
X184288171Y-43194800D02*
X184383409Y-43242419D01*
X184383409Y-43242419D02*
X184573885Y-43242419D01*
X184573885Y-43242419D02*
X184669123Y-43194800D01*
X183621504Y-43242419D02*
X183716742Y-43194800D01*
X183716742Y-43194800D02*
X183764361Y-43147180D01*
X183764361Y-43147180D02*
X183811980Y-43051942D01*
X183811980Y-43051942D02*
X183811980Y-42766228D01*
X183811980Y-42766228D02*
X183764361Y-42670990D01*
X183764361Y-42670990D02*
X183716742Y-42623371D01*
X183716742Y-42623371D02*
X183621504Y-42575752D01*
X183621504Y-42575752D02*
X183478647Y-42575752D01*
X183478647Y-42575752D02*
X183383409Y-42623371D01*
X183383409Y-42623371D02*
X183335790Y-42670990D01*
X183335790Y-42670990D02*
X183288171Y-42766228D01*
X183288171Y-42766228D02*
X183288171Y-43051942D01*
X183288171Y-43051942D02*
X183335790Y-43147180D01*
X183335790Y-43147180D02*
X183383409Y-43194800D01*
X183383409Y-43194800D02*
X183478647Y-43242419D01*
X183478647Y-43242419D02*
X183621504Y-43242419D01*
X182716742Y-43242419D02*
X182811980Y-43194800D01*
X182811980Y-43194800D02*
X182859599Y-43147180D01*
X182859599Y-43147180D02*
X182907218Y-43051942D01*
X182907218Y-43051942D02*
X182907218Y-42766228D01*
X182907218Y-42766228D02*
X182859599Y-42670990D01*
X182859599Y-42670990D02*
X182811980Y-42623371D01*
X182811980Y-42623371D02*
X182716742Y-42575752D01*
X182716742Y-42575752D02*
X182573885Y-42575752D01*
X182573885Y-42575752D02*
X182478647Y-42623371D01*
X182478647Y-42623371D02*
X182431028Y-42670990D01*
X182431028Y-42670990D02*
X182383409Y-42766228D01*
X182383409Y-42766228D02*
X182383409Y-43051942D01*
X182383409Y-43051942D02*
X182431028Y-43147180D01*
X182431028Y-43147180D02*
X182478647Y-43194800D01*
X182478647Y-43194800D02*
X182573885Y-43242419D01*
X182573885Y-43242419D02*
X182716742Y-43242419D01*
X182002456Y-43194800D02*
X181907218Y-43242419D01*
X181907218Y-43242419D02*
X181716742Y-43242419D01*
X181716742Y-43242419D02*
X181621504Y-43194800D01*
X181621504Y-43194800D02*
X181573885Y-43099561D01*
X181573885Y-43099561D02*
X181573885Y-43051942D01*
X181573885Y-43051942D02*
X181621504Y-42956704D01*
X181621504Y-42956704D02*
X181716742Y-42909085D01*
X181716742Y-42909085D02*
X181859599Y-42909085D01*
X181859599Y-42909085D02*
X181954837Y-42861466D01*
X181954837Y-42861466D02*
X182002456Y-42766228D01*
X182002456Y-42766228D02*
X182002456Y-42718609D01*
X182002456Y-42718609D02*
X181954837Y-42623371D01*
X181954837Y-42623371D02*
X181859599Y-42575752D01*
X181859599Y-42575752D02*
X181716742Y-42575752D01*
X181716742Y-42575752D02*
X181621504Y-42623371D01*
X181288170Y-42575752D02*
X180907218Y-42575752D01*
X181145313Y-42242419D02*
X181145313Y-43099561D01*
X181145313Y-43099561D02*
X181097694Y-43194800D01*
X181097694Y-43194800D02*
X181002456Y-43242419D01*
X181002456Y-43242419D02*
X180907218Y-43242419D01*
X180192932Y-43194800D02*
X180288170Y-43242419D01*
X180288170Y-43242419D02*
X180478646Y-43242419D01*
X180478646Y-43242419D02*
X180573884Y-43194800D01*
X180573884Y-43194800D02*
X180621503Y-43099561D01*
X180621503Y-43099561D02*
X180621503Y-42718609D01*
X180621503Y-42718609D02*
X180573884Y-42623371D01*
X180573884Y-42623371D02*
X180478646Y-42575752D01*
X180478646Y-42575752D02*
X180288170Y-42575752D01*
X180288170Y-42575752D02*
X180192932Y-42623371D01*
X180192932Y-42623371D02*
X180145313Y-42718609D01*
X180145313Y-42718609D02*
X180145313Y-42813847D01*
X180145313Y-42813847D02*
X180621503Y-42909085D01*
X179716741Y-43242419D02*
X179716741Y-42575752D01*
X179716741Y-42766228D02*
X179669122Y-42670990D01*
X179669122Y-42670990D02*
X179621503Y-42623371D01*
X179621503Y-42623371D02*
X179526265Y-42575752D01*
X179526265Y-42575752D02*
X179431027Y-42575752D01*
D11*
X182772080Y-77628156D02*
X182819700Y-77580537D01*
X182819700Y-77580537D02*
X182867319Y-77437680D01*
X182867319Y-77437680D02*
X182867319Y-77342442D01*
X182867319Y-77342442D02*
X182819700Y-77199585D01*
X182819700Y-77199585D02*
X182724461Y-77104347D01*
X182724461Y-77104347D02*
X182629223Y-77056728D01*
X182629223Y-77056728D02*
X182438747Y-77009109D01*
X182438747Y-77009109D02*
X182295890Y-77009109D01*
X182295890Y-77009109D02*
X182105414Y-77056728D01*
X182105414Y-77056728D02*
X182010176Y-77104347D01*
X182010176Y-77104347D02*
X181914938Y-77199585D01*
X181914938Y-77199585D02*
X181867319Y-77342442D01*
X181867319Y-77342442D02*
X181867319Y-77437680D01*
X181867319Y-77437680D02*
X181914938Y-77580537D01*
X181914938Y-77580537D02*
X181962557Y-77628156D01*
X182867319Y-78580537D02*
X182867319Y-78009109D01*
X182867319Y-78294823D02*
X181867319Y-78294823D01*
X181867319Y-78294823D02*
X182010176Y-78199585D01*
X182010176Y-78199585D02*
X182105414Y-78104347D01*
X182105414Y-78104347D02*
X182153033Y-78009109D01*
X175309523Y-38814819D02*
X175309523Y-39529104D01*
X175309523Y-39529104D02*
X175357142Y-39671961D01*
X175357142Y-39671961D02*
X175452380Y-39767200D01*
X175452380Y-39767200D02*
X175595237Y-39814819D01*
X175595237Y-39814819D02*
X175690475Y-39814819D01*
X174309523Y-39814819D02*
X174880951Y-39814819D01*
X174595237Y-39814819D02*
X174595237Y-38814819D01*
X174595237Y-38814819D02*
X174690475Y-38957676D01*
X174690475Y-38957676D02*
X174785713Y-39052914D01*
X174785713Y-39052914D02*
X174880951Y-39100533D01*
X173452380Y-39148152D02*
X173452380Y-39814819D01*
X173690475Y-38767200D02*
X173928570Y-39481485D01*
X173928570Y-39481485D02*
X173309523Y-39481485D01*
X192649523Y-38724819D02*
X192649523Y-39439104D01*
X192649523Y-39439104D02*
X192697142Y-39581961D01*
X192697142Y-39581961D02*
X192792380Y-39677200D01*
X192792380Y-39677200D02*
X192935237Y-39724819D01*
X192935237Y-39724819D02*
X193030475Y-39724819D01*
X191649523Y-39724819D02*
X192220951Y-39724819D01*
X191935237Y-39724819D02*
X191935237Y-38724819D01*
X191935237Y-38724819D02*
X192030475Y-38867676D01*
X192030475Y-38867676D02*
X192125713Y-38962914D01*
X192125713Y-38962914D02*
X192220951Y-39010533D01*
X190744761Y-38724819D02*
X191220951Y-38724819D01*
X191220951Y-38724819D02*
X191268570Y-39201009D01*
X191268570Y-39201009D02*
X191220951Y-39153390D01*
X191220951Y-39153390D02*
X191125713Y-39105771D01*
X191125713Y-39105771D02*
X190887618Y-39105771D01*
X190887618Y-39105771D02*
X190792380Y-39153390D01*
X190792380Y-39153390D02*
X190744761Y-39201009D01*
X190744761Y-39201009D02*
X190697142Y-39296247D01*
X190697142Y-39296247D02*
X190697142Y-39534342D01*
X190697142Y-39534342D02*
X190744761Y-39629580D01*
X190744761Y-39629580D02*
X190792380Y-39677200D01*
X190792380Y-39677200D02*
X190887618Y-39724819D01*
X190887618Y-39724819D02*
X191125713Y-39724819D01*
X191125713Y-39724819D02*
X191220951Y-39677200D01*
X191220951Y-39677200D02*
X191268570Y-39629580D01*
X148439523Y-49334819D02*
X148439523Y-50049104D01*
X148439523Y-50049104D02*
X148487142Y-50191961D01*
X148487142Y-50191961D02*
X148582380Y-50287200D01*
X148582380Y-50287200D02*
X148725237Y-50334819D01*
X148725237Y-50334819D02*
X148820475Y-50334819D01*
X147439523Y-50334819D02*
X148010951Y-50334819D01*
X147725237Y-50334819D02*
X147725237Y-49334819D01*
X147725237Y-49334819D02*
X147820475Y-49477676D01*
X147820475Y-49477676D02*
X147915713Y-49572914D01*
X147915713Y-49572914D02*
X148010951Y-49620533D01*
X147058570Y-49430057D02*
X147010951Y-49382438D01*
X147010951Y-49382438D02*
X146915713Y-49334819D01*
X146915713Y-49334819D02*
X146677618Y-49334819D01*
X146677618Y-49334819D02*
X146582380Y-49382438D01*
X146582380Y-49382438D02*
X146534761Y-49430057D01*
X146534761Y-49430057D02*
X146487142Y-49525295D01*
X146487142Y-49525295D02*
X146487142Y-49620533D01*
X146487142Y-49620533D02*
X146534761Y-49763390D01*
X146534761Y-49763390D02*
X147106189Y-50334819D01*
X147106189Y-50334819D02*
X146487142Y-50334819D01*
X188391904Y-56565533D02*
X186868095Y-56565533D01*
X187629999Y-57327438D02*
X187629999Y-55803628D01*
X165224819Y-81231905D02*
X164224819Y-81231905D01*
X164224819Y-81231905D02*
X164224819Y-81470000D01*
X164224819Y-81470000D02*
X164272438Y-81612857D01*
X164272438Y-81612857D02*
X164367676Y-81708095D01*
X164367676Y-81708095D02*
X164462914Y-81755714D01*
X164462914Y-81755714D02*
X164653390Y-81803333D01*
X164653390Y-81803333D02*
X164796247Y-81803333D01*
X164796247Y-81803333D02*
X164986723Y-81755714D01*
X164986723Y-81755714D02*
X165081961Y-81708095D01*
X165081961Y-81708095D02*
X165177200Y-81612857D01*
X165177200Y-81612857D02*
X165224819Y-81470000D01*
X165224819Y-81470000D02*
X165224819Y-81231905D01*
X165224819Y-82755714D02*
X165224819Y-82184286D01*
X165224819Y-82470000D02*
X164224819Y-82470000D01*
X164224819Y-82470000D02*
X164367676Y-82374762D01*
X164367676Y-82374762D02*
X164462914Y-82279524D01*
X164462914Y-82279524D02*
X164510533Y-82184286D01*
X164674819Y-87948095D02*
X163674819Y-87948095D01*
X164674819Y-88519523D02*
X164103390Y-88090952D01*
X163674819Y-88519523D02*
X164246247Y-87948095D01*
X147074819Y-123686666D02*
X147789104Y-123686666D01*
X147789104Y-123686666D02*
X147931961Y-123639047D01*
X147931961Y-123639047D02*
X148027200Y-123543809D01*
X148027200Y-123543809D02*
X148074819Y-123400952D01*
X148074819Y-123400952D02*
X148074819Y-123305714D01*
X147074819Y-124591428D02*
X147074819Y-124400952D01*
X147074819Y-124400952D02*
X147122438Y-124305714D01*
X147122438Y-124305714D02*
X147170057Y-124258095D01*
X147170057Y-124258095D02*
X147312914Y-124162857D01*
X147312914Y-124162857D02*
X147503390Y-124115238D01*
X147503390Y-124115238D02*
X147884342Y-124115238D01*
X147884342Y-124115238D02*
X147979580Y-124162857D01*
X147979580Y-124162857D02*
X148027200Y-124210476D01*
X148027200Y-124210476D02*
X148074819Y-124305714D01*
X148074819Y-124305714D02*
X148074819Y-124496190D01*
X148074819Y-124496190D02*
X148027200Y-124591428D01*
X148027200Y-124591428D02*
X147979580Y-124639047D01*
X147979580Y-124639047D02*
X147884342Y-124686666D01*
X147884342Y-124686666D02*
X147646247Y-124686666D01*
X147646247Y-124686666D02*
X147551009Y-124639047D01*
X147551009Y-124639047D02*
X147503390Y-124591428D01*
X147503390Y-124591428D02*
X147455771Y-124496190D01*
X147455771Y-124496190D02*
X147455771Y-124305714D01*
X147455771Y-124305714D02*
X147503390Y-124210476D01*
X147503390Y-124210476D02*
X147551009Y-124162857D01*
X147551009Y-124162857D02*
X147646247Y-124115238D01*
X174795238Y-96170057D02*
X174890476Y-96122438D01*
X174890476Y-96122438D02*
X174985714Y-96027200D01*
X174985714Y-96027200D02*
X175128571Y-95884342D01*
X175128571Y-95884342D02*
X175223809Y-95836723D01*
X175223809Y-95836723D02*
X175319047Y-95836723D01*
X175271428Y-96074819D02*
X175366666Y-96027200D01*
X175366666Y-96027200D02*
X175461904Y-95931961D01*
X175461904Y-95931961D02*
X175509523Y-95741485D01*
X175509523Y-95741485D02*
X175509523Y-95408152D01*
X175509523Y-95408152D02*
X175461904Y-95217676D01*
X175461904Y-95217676D02*
X175366666Y-95122438D01*
X175366666Y-95122438D02*
X175271428Y-95074819D01*
X175271428Y-95074819D02*
X175080952Y-95074819D01*
X175080952Y-95074819D02*
X174985714Y-95122438D01*
X174985714Y-95122438D02*
X174890476Y-95217676D01*
X174890476Y-95217676D02*
X174842857Y-95408152D01*
X174842857Y-95408152D02*
X174842857Y-95741485D01*
X174842857Y-95741485D02*
X174890476Y-95931961D01*
X174890476Y-95931961D02*
X174985714Y-96027200D01*
X174985714Y-96027200D02*
X175080952Y-96074819D01*
X175080952Y-96074819D02*
X175271428Y-96074819D01*
X173890476Y-96074819D02*
X174461904Y-96074819D01*
X174176190Y-96074819D02*
X174176190Y-95074819D01*
X174176190Y-95074819D02*
X174271428Y-95217676D01*
X174271428Y-95217676D02*
X174366666Y-95312914D01*
X174366666Y-95312914D02*
X174461904Y-95360533D01*
%TO.C,C1*%
D12*
X183730000Y-82042323D02*
X193890000Y-82042323D01*
X183730000Y-82082323D02*
X193890000Y-82082323D01*
X183731000Y-82122323D02*
X193889000Y-82122323D01*
X183731000Y-82162323D02*
X193889000Y-82162323D01*
X183733000Y-82202323D02*
X193887000Y-82202323D01*
X183734000Y-82242323D02*
X193886000Y-82242323D01*
X183736000Y-82282323D02*
X193884000Y-82282323D01*
X183738000Y-82322323D02*
X193882000Y-82322323D01*
X183740000Y-82362323D02*
X193880000Y-82362323D01*
X183743000Y-82402323D02*
X193877000Y-82402323D01*
X183746000Y-82442323D02*
X193874000Y-82442323D01*
X183749000Y-82482323D02*
X193871000Y-82482323D01*
X183753000Y-82522323D02*
X193867000Y-82522323D01*
X183756000Y-82562323D02*
X193864000Y-82562323D01*
X183761000Y-82602323D02*
X193859000Y-82602323D01*
X183765000Y-82642323D02*
X193855000Y-82642323D01*
X183770000Y-82682323D02*
X193850000Y-82682323D01*
X183775000Y-82722323D02*
X193845000Y-82722323D01*
X183781000Y-82762323D02*
X193839000Y-82762323D01*
X183787000Y-82802323D02*
X193833000Y-82802323D01*
X183793000Y-82842323D02*
X193827000Y-82842323D01*
X183799000Y-82882323D02*
X193821000Y-82882323D01*
X183806000Y-82922323D02*
X193814000Y-82922323D01*
X183813000Y-82962323D02*
X193807000Y-82962323D01*
X183821000Y-83002323D02*
X193799000Y-83002323D01*
X183829000Y-83042323D02*
X193791000Y-83042323D01*
X183837000Y-83082323D02*
X193783000Y-83082323D01*
X183845000Y-83122323D02*
X193775000Y-83122323D01*
X183854000Y-83162323D02*
X193766000Y-83162323D01*
X183863000Y-83202323D02*
X193757000Y-83202323D01*
X183873000Y-83242323D02*
X193747000Y-83242323D01*
X183882000Y-83282323D02*
X193738000Y-83282323D01*
X183893000Y-83322323D02*
X187570000Y-83322323D01*
X183903000Y-83362323D02*
X187570000Y-83362323D01*
X183914000Y-83402323D02*
X187570000Y-83402323D01*
X183925000Y-83442323D02*
X187570000Y-83442323D01*
X183937000Y-83482323D02*
X187570000Y-83482323D01*
X183949000Y-83522323D02*
X187570000Y-83522323D01*
X183961000Y-83562323D02*
X187570000Y-83562323D01*
X183973000Y-83602323D02*
X187570000Y-83602323D01*
X183986000Y-83642323D02*
X187570000Y-83642323D01*
X184000000Y-83682323D02*
X187570000Y-83682323D01*
X184013000Y-83722323D02*
X187570000Y-83722323D01*
X184028000Y-83762323D02*
X187570000Y-83762323D01*
X184042000Y-83802323D02*
X187570000Y-83802323D01*
X184057000Y-83842323D02*
X187570000Y-83842323D01*
X184072000Y-83882323D02*
X187570000Y-83882323D01*
X184088000Y-83922323D02*
X187570000Y-83922323D01*
X184104000Y-83962323D02*
X187570000Y-83962323D01*
X184120000Y-84002323D02*
X187570000Y-84002323D01*
X184137000Y-84042323D02*
X187570000Y-84042323D01*
X184154000Y-84082323D02*
X187570000Y-84082323D01*
X184172000Y-84122323D02*
X187570000Y-84122323D01*
X184190000Y-84162323D02*
X187570000Y-84162323D01*
X184208000Y-84202323D02*
X187570000Y-84202323D01*
X184227000Y-84242323D02*
X187570000Y-84242323D01*
X184246000Y-84282323D02*
X187570000Y-84282323D01*
X184266000Y-84322323D02*
X187570000Y-84322323D01*
X184286000Y-84362323D02*
X187570000Y-84362323D01*
X184306000Y-84402323D02*
X187570000Y-84402323D01*
X184327000Y-84442323D02*
X187570000Y-84442323D01*
X184349000Y-84482323D02*
X187570000Y-84482323D01*
X184371000Y-84522323D02*
X187570000Y-84522323D01*
X184393000Y-84562323D02*
X187570000Y-84562323D01*
X184416000Y-84602323D02*
X187570000Y-84602323D01*
X184439000Y-84642323D02*
X187570000Y-84642323D01*
X184463000Y-84682323D02*
X187570000Y-84682323D01*
X184487000Y-84722323D02*
X187570000Y-84722323D01*
X184512000Y-84762323D02*
X187570000Y-84762323D01*
X184538000Y-84802323D02*
X187570000Y-84802323D01*
X184563000Y-84842323D02*
X187570000Y-84842323D01*
X184590000Y-84882323D02*
X187570000Y-84882323D01*
X184617000Y-84922323D02*
X187570000Y-84922323D01*
X184644000Y-84962323D02*
X187570000Y-84962323D01*
X184672000Y-85002323D02*
X187570000Y-85002323D01*
X184701000Y-85042323D02*
X187570000Y-85042323D01*
X184730000Y-85082323D02*
X187570000Y-85082323D01*
X184760000Y-85122323D02*
X187570000Y-85122323D01*
X184790000Y-85162323D02*
X187570000Y-85162323D01*
X184822000Y-85202323D02*
X187570000Y-85202323D01*
X184853000Y-85242323D02*
X187570000Y-85242323D01*
X184886000Y-85282323D02*
X187570000Y-85282323D01*
X184919000Y-85322323D02*
X187570000Y-85322323D01*
X184952000Y-85362323D02*
X187570000Y-85362323D01*
X184987000Y-85402323D02*
X187570000Y-85402323D01*
X185022000Y-85442323D02*
X187570000Y-85442323D01*
X185058000Y-85482323D02*
X187570000Y-85482323D01*
X185094000Y-85522323D02*
X187570000Y-85522323D01*
X185132000Y-85562323D02*
X187570000Y-85562323D01*
X185170000Y-85602323D02*
X187570000Y-85602323D01*
X185209000Y-85642323D02*
X187570000Y-85642323D01*
X185249000Y-85682323D02*
X187570000Y-85682323D01*
X185290000Y-85722323D02*
X187570000Y-85722323D01*
X185332000Y-85762323D02*
X187570000Y-85762323D01*
X185375000Y-85802323D02*
X192245000Y-85802323D01*
X185419000Y-85842323D02*
X192201000Y-85842323D01*
X185435000Y-77062677D02*
X186435000Y-77062677D01*
X185463000Y-85882323D02*
X192157000Y-85882323D01*
X185509000Y-85922323D02*
X192111000Y-85922323D01*
X185556000Y-85962323D02*
X192064000Y-85962323D01*
X185605000Y-86002323D02*
X192015000Y-86002323D01*
X185654000Y-86042323D02*
X191966000Y-86042323D01*
X185705000Y-86082323D02*
X191915000Y-86082323D01*
X185757000Y-86122323D02*
X191863000Y-86122323D01*
X185810000Y-86162323D02*
X191810000Y-86162323D01*
X185865000Y-86202323D02*
X191755000Y-86202323D01*
X185922000Y-86242323D02*
X191698000Y-86242323D01*
X185935000Y-76562677D02*
X185935000Y-77562677D01*
X185980000Y-86282323D02*
X191640000Y-86282323D01*
X186040000Y-86322323D02*
X191580000Y-86322323D01*
X186102000Y-86362323D02*
X191518000Y-86362323D01*
X186166000Y-86402323D02*
X191454000Y-86402323D01*
X186232000Y-86442323D02*
X191388000Y-86442323D01*
X186300000Y-86482323D02*
X191320000Y-86482323D01*
X186371000Y-86522323D02*
X191249000Y-86522323D01*
X186445000Y-86562323D02*
X191175000Y-86562323D01*
X186522000Y-86602323D02*
X191098000Y-86602323D01*
X186602000Y-86642323D02*
X191018000Y-86642323D01*
X186686000Y-86682323D02*
X190934000Y-86682323D01*
X186773000Y-86722323D02*
X190847000Y-86722323D01*
X186866000Y-86762323D02*
X190754000Y-86762323D01*
X186964000Y-86802323D02*
X190656000Y-86802323D01*
X187068000Y-86842323D02*
X190552000Y-86842323D01*
X187180000Y-86882323D02*
X190440000Y-86882323D01*
X187301000Y-86922323D02*
X190319000Y-86922323D01*
X187433000Y-86962323D02*
X190187000Y-86962323D01*
X187580000Y-87002323D02*
X190040000Y-87002323D01*
X187748000Y-87042323D02*
X189872000Y-87042323D01*
X187948000Y-87082323D02*
X189672000Y-87082323D01*
X188211000Y-87122323D02*
X189409000Y-87122323D01*
X190050000Y-83322323D02*
X193727000Y-83322323D01*
X190050000Y-83362323D02*
X193717000Y-83362323D01*
X190050000Y-83402323D02*
X193706000Y-83402323D01*
X190050000Y-83442323D02*
X193695000Y-83442323D01*
X190050000Y-83482323D02*
X193683000Y-83482323D01*
X190050000Y-83522323D02*
X193671000Y-83522323D01*
X190050000Y-83562323D02*
X193659000Y-83562323D01*
X190050000Y-83602323D02*
X193647000Y-83602323D01*
X190050000Y-83642323D02*
X193634000Y-83642323D01*
X190050000Y-83682323D02*
X193620000Y-83682323D01*
X190050000Y-83722323D02*
X193607000Y-83722323D01*
X190050000Y-83762323D02*
X193592000Y-83762323D01*
X190050000Y-83802323D02*
X193578000Y-83802323D01*
X190050000Y-83842323D02*
X193563000Y-83842323D01*
X190050000Y-83882323D02*
X193548000Y-83882323D01*
X190050000Y-83922323D02*
X193532000Y-83922323D01*
X190050000Y-83962323D02*
X193516000Y-83962323D01*
X190050000Y-84002323D02*
X193500000Y-84002323D01*
X190050000Y-84042323D02*
X193483000Y-84042323D01*
X190050000Y-84082323D02*
X193466000Y-84082323D01*
X190050000Y-84122323D02*
X193448000Y-84122323D01*
X190050000Y-84162323D02*
X193430000Y-84162323D01*
X190050000Y-84202323D02*
X193412000Y-84202323D01*
X190050000Y-84242323D02*
X193393000Y-84242323D01*
X190050000Y-84282323D02*
X193374000Y-84282323D01*
X190050000Y-84322323D02*
X193354000Y-84322323D01*
X190050000Y-84362323D02*
X193334000Y-84362323D01*
X190050000Y-84402323D02*
X193314000Y-84402323D01*
X190050000Y-84442323D02*
X193293000Y-84442323D01*
X190050000Y-84482323D02*
X193271000Y-84482323D01*
X190050000Y-84522323D02*
X193249000Y-84522323D01*
X190050000Y-84562323D02*
X193227000Y-84562323D01*
X190050000Y-84602323D02*
X193204000Y-84602323D01*
X190050000Y-84642323D02*
X193181000Y-84642323D01*
X190050000Y-84682323D02*
X193157000Y-84682323D01*
X190050000Y-84722323D02*
X193133000Y-84722323D01*
X190050000Y-84762323D02*
X193108000Y-84762323D01*
X190050000Y-84802323D02*
X193082000Y-84802323D01*
X190050000Y-84842323D02*
X193057000Y-84842323D01*
X190050000Y-84882323D02*
X193030000Y-84882323D01*
X190050000Y-84922323D02*
X193003000Y-84922323D01*
X190050000Y-84962323D02*
X192976000Y-84962323D01*
X190050000Y-85002323D02*
X192948000Y-85002323D01*
X190050000Y-85042323D02*
X192919000Y-85042323D01*
X190050000Y-85082323D02*
X192890000Y-85082323D01*
X190050000Y-85122323D02*
X192860000Y-85122323D01*
X190050000Y-85162323D02*
X192830000Y-85162323D01*
X190050000Y-85202323D02*
X192798000Y-85202323D01*
X190050000Y-85242323D02*
X192767000Y-85242323D01*
X190050000Y-85282323D02*
X192734000Y-85282323D01*
X190050000Y-85322323D02*
X192701000Y-85322323D01*
X190050000Y-85362323D02*
X192668000Y-85362323D01*
X190050000Y-85402323D02*
X192633000Y-85402323D01*
X190050000Y-85442323D02*
X192598000Y-85442323D01*
X190050000Y-85482323D02*
X192562000Y-85482323D01*
X190050000Y-85522323D02*
X192526000Y-85522323D01*
X190050000Y-85562323D02*
X192488000Y-85562323D01*
X190050000Y-85602323D02*
X192450000Y-85602323D01*
X190050000Y-85642323D02*
X192411000Y-85642323D01*
X190050000Y-85682323D02*
X192371000Y-85682323D01*
X190050000Y-85722323D02*
X192330000Y-85722323D01*
X190050000Y-85762323D02*
X192288000Y-85762323D01*
X193930000Y-82042323D02*
G75*
G02*
X183690000Y-82042323I-5120000J0D01*
G01*
X183690000Y-82042323D02*
G75*
G02*
X193930000Y-82042323I5120000J0D01*
G01*
%TO.C,J14*%
X173170000Y-40800000D02*
X173170000Y-42130000D01*
X173170000Y-43400000D02*
X173170000Y-46000000D01*
X174500000Y-40800000D02*
X173170000Y-40800000D01*
X175830000Y-43400000D02*
X173170000Y-43400000D01*
X175830000Y-43400000D02*
X175830000Y-46000000D01*
X175830000Y-46000000D02*
X173170000Y-46000000D01*
%TO.C,J15*%
X190510000Y-40710000D02*
X190510000Y-42040000D01*
X190510000Y-43310000D02*
X190510000Y-45910000D01*
X191840000Y-40710000D02*
X190510000Y-40710000D01*
X193170000Y-43310000D02*
X190510000Y-43310000D01*
X193170000Y-43310000D02*
X193170000Y-45910000D01*
X193170000Y-45910000D02*
X190510000Y-45910000D01*
%TO.C,J12*%
X108740000Y-50725000D02*
X108740000Y-57900000D01*
X108740000Y-64920000D02*
X108740000Y-72095000D01*
X108740000Y-72095000D02*
X186520000Y-72095000D01*
X186520000Y-50725000D02*
X108740000Y-50725000D01*
X186520000Y-57900000D02*
X186520000Y-50725000D01*
X186520000Y-72095000D02*
X186520000Y-64920000D01*
%TO.C,D1*%
X162120000Y-79390000D02*
X162120000Y-80410000D01*
X162120000Y-86870000D02*
X162120000Y-85850000D01*
X163590000Y-84830000D02*
X160650000Y-84830000D01*
X163590000Y-84950000D02*
X160650000Y-84950000D01*
X163590000Y-85070000D02*
X160650000Y-85070000D01*
X160650000Y-80410000D02*
X163590000Y-80410000D01*
X163590000Y-85850000D01*
X160650000Y-85850000D01*
X160650000Y-80410000D01*
%TO.C,J6*%
X148420000Y-118670000D02*
X149670000Y-118670000D01*
X148420000Y-119920000D02*
X148420000Y-118670000D01*
X150970000Y-118970000D02*
X150970000Y-119720000D01*
X150970000Y-119720000D02*
X153920000Y-119720000D01*
X150970000Y-128320000D02*
X153920000Y-128320000D01*
X150970000Y-129070000D02*
X150970000Y-128320000D01*
X153920000Y-119720000D02*
X153920000Y-124020000D01*
X153920000Y-128320000D02*
X153920000Y-124020000D01*
X148710000Y-118960000D02*
X154680000Y-118960000D01*
X154680000Y-129080000D01*
X148710000Y-129080000D01*
X148710000Y-118960000D01*
X148720000Y-118970000D02*
X149470000Y-118970000D01*
X149470000Y-120770000D01*
X148720000Y-120770000D01*
X148720000Y-118970000D01*
X148720000Y-122270000D02*
X149470000Y-122270000D01*
X149470000Y-125770000D01*
X148720000Y-125770000D01*
X148720000Y-122270000D01*
X148720000Y-127270000D02*
X149470000Y-127270000D01*
X149470000Y-129070000D01*
X148720000Y-129070000D01*
X148720000Y-127270000D01*
%TO.C,Q1*%
X169590000Y-78910000D02*
X169590000Y-94780000D01*
X169590000Y-78910000D02*
X179810000Y-78910000D01*
X169590000Y-94780000D02*
X179810000Y-94780000D01*
X171675000Y-78910000D02*
X171675000Y-76470000D01*
X172645000Y-78910000D02*
X172645000Y-76470000D01*
X174215000Y-78910000D02*
X174215000Y-76470000D01*
X175185000Y-78910000D02*
X175185000Y-76470000D01*
X176755000Y-78910000D02*
X176755000Y-76470000D01*
X177725000Y-78910000D02*
X177725000Y-76470000D01*
X179810000Y-78910000D02*
X179810000Y-94780000D01*
%TD*%
M02*
